<?xml version="1.0" encoding="UTF-8"?><!-- Generator: Adobe Illustrator 16.0.0, SVG Export Plug-In . SVG Version: 6.00 Build 0)  --><svg xmlns="http://www.w3.org/2000/svg" enable-background="new 0 0 330.865 490.619" height="490.62px" id="Layer_1" version="1.1" viewBox="0 0 330.865 490.619" width="330.86px" x="0px" xml:space="preserve" y="0px">
<g display="none" fill="#8F692B" id="_x2D_-">
	<path d="m-89.26 377.68s61.877-84.248 87.316-92.144 99.123-33.333 121.93-50c22.807-16.667 95.615-29.825 118.42-53.509 22.806-23.684 79.823-28.948 80.701-26.316s-7.896 0-20.176 5.263c-12.281 5.263-33.334 1.754-58.771 30.702-36.842 17.544-97.655 41.228-97.655 41.228l-43.82 25.45s-98.87 30.701-115.54 51.754c-16.662 21.06-72.4 134.21-72.4 134.21v-66.63z" display="inline"/>
	<path d="m0.422 294.48s20.434 4.142 39.551 14.244 33.297-11.894 78.652-9.312c-11.794-10.088-17.486-5.344-17.486-5.344s-36.478 9.964-48.822 12.31c-12.344 2.347-35.953-19.737-35.953-19.737s-17.35-2.97-15.933 7.84z" display="inline"/>
	<path d="m59.51 137.22l7.229 11.539s18 17 23.667 20 17 6.333 19 9.333 1.667 13 1.667 13l-22.892 67.667s6.258-7.009 17.028-8.705c0 0 2.708-30.843 10.868-61.897 0 0-0.337-12.296-9.337-15.181s-21.667-10.884-23-13.217-13.333-13.333-13.333-13.333-10.137-11.75-10.907-9.21z" display="inline"/>
	<path d="m197.66 204.69s13.559-15.997 9.173-49.592 3.509-2.893 4.386 9.388-6.779 37.504-6.779 37.504 4.22 6.94-6.78 2.7z" display="inline"/>
	<path d="m93.506 296.9s12.36 16.938 46.044 20.58c33.684 3.639 1.986 4.091-10.156 2.055-12.143-2.037-34.857-15.41-34.857-15.41s-12.862-4.45-1.027-7.23z" display="inline"/>
</g>
<g fill="#86AE7C">
	<path d="m242.47 287.9s16.068 40.498 32.612 18.91c11.12-19.16-32.61-18.91-32.61-18.91z" fill="inherit"/>
	<path d="m225.26 439.46s16.068 40.499 32.612 18.911c11.12-19.16-32.61-18.91-32.61-18.91z" fill="inherit"/>
	<path d="m203.97 306.06c3.025 7.562 7.174 15.022 12.793 20.961 7.748 8.19 19.967 8.004 25.274-3.019 8.979-18.638-24.714-21.2-35.617-21.159-3.276 0.012-3.276 5.094 0 5.081 6.951-0.024 33.974 0.554 31.729 11.929-0.844 4.274-5.783 8.824-10.34 8.179-4.099-0.58-7.305-4.228-9.771-7.236-3.799-4.637-7.066-10.831-9.169-16.086-1.19-2.99-6.1-1.68-4.89 1.36z" fill="inherit"/>
	<path d="m253.79 426.34c3.024 7.563 7.174 15.022 12.791 20.961 7.75 8.191 19.967 8.003 25.276-3.018 8.979-18.639-24.715-21.201-35.617-21.16-3.276 0.012-3.277 5.094 0 5.082 6.951-0.026 33.974 0.552 31.729 11.927-0.844 4.276-5.783 8.825-10.339 8.179-4.098-0.579-7.304-4.227-9.771-7.234-3.799-4.637-7.068-10.831-9.17-16.086-1.2-3-6.12-1.69-4.9 1.35z" fill="inherit"/>
	<path d="m181.93 463.91c3.024 7.562 7.174 15.021 12.791 20.961 7.75 8.191 19.967 8.003 25.275-3.018 8.98-18.641-24.714-21.201-35.617-21.16-3.275 0.012-3.277 5.094 0 5.082 6.951-0.026 33.975 0.552 31.729 11.927-0.844 4.276-5.781 8.825-10.338 8.179-4.099-0.581-7.305-4.227-9.771-7.236-3.799-4.637-7.067-10.829-9.17-16.086-1.2-2.99-6.12-1.68-4.9 1.36z" fill="inherit"/>
	<path d="m281.82 266.04s42.146 11.053 34.558-15.066c-8.85-20.3-34.56 15.07-34.56 15.07z" fill="inherit"/>
	<path d="m160.84 196s42.146 11.052 34.558-15.066c-8.85-20.3-34.56 15.07-34.56 15.07z" fill="inherit"/>
	<path d="m295.39 403s42.146 11.052 34.56-15.065c-8.85-20.32-34.56 15.06-34.56 15.06z" fill="inherit"/>
	<path d="m259.76 276.82c6.827-12.454 16.166-39.382-6.118-41.008-4.822-0.351-10.156 1.889-12.164 6.5-1.925 4.423-0.563 9.518 1.103 13.792 3.006 7.707 7.924 14.883 13.188 21.229 2.096 2.522 5.67-1.091 3.594-3.593-5.284-6.371-24.608-34.226-4.698-32.774 15.774 1.151 4.856 25.719 0.709 33.288-1.58 2.87 2.81 5.44 4.39 2.56z" fill="inherit"/>
	<path d="m276.97 413.37c6.828-12.454 16.167-39.384-6.118-41.009-4.822-0.353-10.156 1.891-12.164 6.5-1.924 4.423-0.563 9.518 1.104 13.791 3.005 7.709 7.923 14.884 13.189 21.23 2.095 2.524 5.668-1.091 3.592-3.594-5.283-6.371-24.607-34.227-4.697-32.771 15.775 1.149 4.855 25.722 0.709 33.286-1.58 2.87 2.81 5.44 4.39 2.56z" fill="inherit"/>
	<path d="m193.06 311.59s21.043-38.153-6.14-37.196c-21.85 3.61 6.14 37.2 6.14 37.2z" fill="inherit"/>
	<path d="m158.79 182.09s-24.712-35.887-36.015-11.148c-6.56 21.16 36.01 11.15 36.01 11.15z" fill="inherit"/>
	<path d="m239.46 430.7s21.043-38.153-6.138-37.197c-21.85 3.61 6.14 37.2 6.14 37.2z" fill="inherit"/>
	<path d="m187.74 458.07s21.045-38.153-6.137-37.197c-21.86 3.61 6.14 37.2 6.14 37.2z" fill="inherit"/>
	<path d="m222.12 295.51s25.223-17.597 7.917-25.546c-14.81-4.58-7.92 25.55-7.92 25.55z" fill="inherit"/>
	<path d="m79.132 247.25s-16.069 40.499-32.613 18.911c-11.114-19.17 32.613-18.91 32.613-18.91z" fill="inherit"/>
	<path d="m112.73 264.06c-1.995 4.988-5.132 10.588-8.48 15.188-2.441 3.354-5.664 6.792-9.754 7.981-4.661 1.354-9.465-3.283-10.852-7.316-4.03-11.721 24.899-12.661 31.537-12.637 3.278 0.012 3.276-5.07 0-5.082-10.996-0.041-43.481 2.172-35.874 20.554 1.97 4.759 7.009 9.19 12.277 9.692 4.953 0.473 9.179-2.191 12.649-5.461 6.069-5.724 10.326-13.893 13.397-21.568 1.22-3.04-3.7-4.35-4.9-1.34z" fill="inherit"/>
	<path d="m40.795 225.39s-42.146 11.052-34.558-15.067c8.853-20.31 34.558 15.07 34.558 15.07z" fill="inherit"/>
	<path d="m160.13 137.24s-25.025-35.667 2.101-37.642c22.12 1.232-2.1 37.642-2.1 37.642z" fill="inherit"/>
	<path d="m44.774 360.24s-42.146 11.052-34.558-15.066c8.854-20.3 34.558 15.07 34.558 15.07z" fill="inherit"/>
	<path d="m65.572 239.93s-26.109-34.882 0.944-37.688c22.149 0.56-0.944 37.69-0.944 37.69z" fill="inherit"/>
	<path d="m135.69 269.13c-4.412-8.048-14.891-31.376 0.709-33.287 20.032-2.454 0.179 26.891-4.7 32.772-2.076 2.502 1.499 6.117 3.593 3.593 5.314-6.405 9.997-13.535 13.191-21.231 4.045-9.745 1.254-20.625-11.063-20.29-22.564 0.612-12.575 29.231-6.119 41.008 1.58 2.88 5.97 0.32 4.39-2.56z" fill="inherit"/>
	<path d="m164.49 152.16c2.916-5.341 6.557-10.391 10.773-14.772 2.78-2.891 6.42-6.029 10.586-6.424 4.858-0.461 8.717 4.662 9.627 8.892 2.537 11.786-26.877 9.261-33.182 8.481-3.248-0.401-3.208 4.686 0 5.082 11.217 1.386 43.115 2.88 37.698-16.455-1.413-5.047-6.181-9.754-11.313-10.872-4.729-1.029-9.481 1.362-13.097 4.203-6.418 5.046-11.584 12.159-15.482 19.3-1.58 2.88 2.81 5.45 4.38 2.57z" fill="inherit"/>
	<path d="m99.479 254.86s-25.221-17.597-7.917-25.544c14.818-4.6 7.917 25.54 7.917 25.54z" fill="inherit"/>
	<path d="m161.41 160.16s-30.691 1.941-22.104-15.055c8.73-12.82 22.1 15.06 22.1 15.06z" fill="inherit"/>
	<path d="m210.83 445.91s20.854-22.604 2.246-26.649c-15.46-1.3-2.25 26.65-2.25 26.65z" fill="inherit"/>
	<path d="m178.43 315.98s6.614 30.033 20.576 17.084c9.9-11.93-20.58-17.08-20.58-17.08z" fill="inherit"/>
	<path d="m144.41 277.46s-30.43-4.448-23.263 13.194c7.65 13.49 23.26-13.19 23.26-13.19z" fill="inherit"/>
	<path d="m79.132 380.98s-16.069 40.498-32.613 18.909c-11.114-19.17 32.613-18.91 32.613-18.91z" fill="inherit"/>
	<path d="m112.73 397.79c-1.995 4.989-5.132 10.589-8.48 15.188-2.441 3.354-5.664 6.792-9.754 7.98-4.661 1.355-9.465-3.282-10.852-7.315-4.03-11.721 24.899-12.66 31.537-12.638 3.278 0.013 3.276-5.067 0-5.081-10.996-0.042-43.481 2.171-35.874 20.553 1.97 4.762 7.009 9.191 12.277 9.693 4.953 0.473 9.179-2.191 12.649-5.462 6.069-5.721 10.326-13.891 13.397-21.567 1.22-3.03-3.7-4.34-4.9-1.34z" fill="inherit"/>
	<path d="m135.69 402.86c-4.412-8.049-14.891-31.377 0.709-33.286 20.032-2.454 0.179 26.892-4.7 32.771-2.076 2.502 1.499 6.117 3.593 3.595 5.314-6.405 9.997-13.535 13.191-21.231 4.045-9.746 1.254-20.625-11.063-20.29-22.564 0.612-12.575 29.229-6.119 41.007 1.58 2.87 5.97 0.31 4.39-2.57z" fill="inherit"/>
	<path d="m99.479 388.59s-25.221-17.597-7.917-25.546c14.818-4.59 7.917 25.55 7.917 25.55z" fill="inherit"/>
	<path d="m144.41 411.18s-30.43-4.445-23.263 13.195c7.65 13.49 23.26-13.2 23.26-13.2z" fill="inherit"/>
	<path d="m283.9 409.47s6.615 30.033 20.576 17.083c9.91-11.93-20.58-17.08-20.58-17.08z" fill="inherit"/>
</g>
<g>
	<g fill="#86AE7C">
		<path d="m162.5 488.71v-115.53-189.28-50.892c0-0.742-2.945-0.236-2.945 0.789v115.53 189.28 50.893c0 0.74 2.94 0.24 2.94-0.79z" fill="inherit"/>
		<path d="m161.69 326.94c41.033-20.102 82.065-40.2 123.1-60.301 0.024-0.016 0.052-0.026 0.079-0.039 1.806-0.887 0.193-2.557-1.324-1.812-41.033 20.102-82.064 40.2-123.1 60.301-0.026 0.016-0.053 0.026-0.08 0.039-1.81 0.89-0.2 2.56 1.32 1.81z" fill="inherit"/>
		<path d="m161.42 284.37c-41.033-20.102-82.065-40.201-123.1-60.302-0.026-0.013-0.053-0.026-0.08-0.039-1.261-0.618-3.383 1.208-1.685 2.04l123.1 60.3c0.026 0.014 0.053 0.026 0.08 0.038 1.25 0.61 3.37-1.21 1.68-2.04z" fill="inherit"/>
		<path d="m161.42 418.1c-41.033-20.101-82.065-40.2-123.1-60.302-0.026-0.013-0.053-0.025-0.08-0.038-1.261-0.618-3.383 1.207-1.685 2.038 41.033 20.102 82.065 40.202 123.1 60.302 0.026 0.015 0.053 0.025 0.08 0.039 1.25 0.61 3.37-1.21 1.68-2.04z" fill="inherit"/>
		<path d="m161.63 472.46c44.356-22.841 88.715-45.681 133.07-68.521 2.968-1.527 5.936-3.059 8.901-4.587 1.809-0.93 0.147-2.018-1.193-1.324-44.357 22.841-88.715 45.681-133.07 68.521-2.968 1.528-5.936 3.059-8.903 4.585-1.82 0.92-0.16 2.01 1.19 1.32z" fill="inherit"/>
	</g>
</g>
<g>
	<path d="m259.69 378.88s10.181-19.231-7.164-27.147c-17.344-7.92-25.642 3.771-30.92 9.804-5.276 6.033-84.835 94.252-90.871 97.275 1.015 2.922 5.656 3.396 5.656 3.396l0.755 7.541s12.065-10.557 26.016-30.919c16.592 0.754 35.064-4.901 35.064-4.901s43.35 8.69 61.45-55.04z" fill="#1A947F"/>
</g>
<path d="m259.69 378.88s10.181-19.231-7.164-27.147c-17.344-7.92-25.642 3.771-30.92 9.804-5.276 6.033-84.835 94.252-90.871 97.275 1.015 2.922 5.656 3.396 5.656 3.396l0.755 7.541s12.065-10.557 26.016-30.919c16.592 0.754 35.064-4.901 35.064-4.901s43.35 8.69 61.45-55.04z" enable-background="new    " fill="#fff" id="x" opacity=".5"/>
<g fill="#1A947F">
	<path d="m267.98 370.21l-5.326-3.018s-0.592 4.55-1.182 7.133c2.18-0.42 6.51-4.11 6.51-4.11z" fill="inherit"/>
	<path d="m173.26 438.61l58.275-64.279s8.151 1.415 8.225 10.464c0.07 9.05-3.45 47.01-66.5 53.82z" fill="inherit"/>
	<path d="m247.4 361.96s2.806 3.675 0.48 3.577c-2.32-0.1-0.48-3.58-0.48-3.58z" fill="inherit"/>
	<g>
		<path d="m177.4 420.91s-0.186 0.169-0.533 0.484c-0.34 0.32-0.871 0.767-1.482 1.388-1.222 1.241-3.062 2.938-5.104 5.112-1.03 1.073-2.146 2.245-3.277 3.518-1.146 1.262-2.364 2.586-3.566 4.001-0.608 0.703-1.226 1.418-1.851 2.143-0.314 0.389-0.629 0.776-0.946 1.167l-0.891 1.146c-1.199 1.53-2.417 3.083-3.637 4.637-1.193 1.572-2.388 3.146-3.563 4.693-1.194 1.53-2.294 3.097-3.411 4.571-1.121 1.471-2.152 2.934-3.156 4.3-0.998 1.369-1.94 2.666-2.812 3.86-1.755 2.381-3.154 4.423-4.272 5.726-0.554 0.652-0.977 1.179-1.299 1.511-0.333 0.313-0.509 0.482-0.509 0.482l0.121 0.206s0.888-0.517 2.134-1.729c1.269-1.188 2.966-3.003 4.923-5.242 3.917-4.475 8.891-10.646 13.756-16.9 1.198-1.578 2.396-3.154 3.576-4.709 0.583-0.778 1.163-1.553 1.733-2.312 0.595-0.748 1.185-1.487 1.762-2.214 2.312-2.903 4.475-5.615 6.324-7.938 3.702-4.646 6.17-7.745 6.17-7.745l-0.18-0.17z" fill="inherit"/>
		<g>
			<path d="m213.45 432.41c-0.325 0.508-0.607 1.017-0.809 1.524-0.237 0.51-0.383 1.019-0.56 1.524-0.144 0.509-0.255 1.02-0.375 1.526-0.095 0.509-0.165 1.017-0.221 1.522-0.175 2.035-0.104 4.07 0.427 6.104l0.461 1.776 0.977-0.137c0.099-0.014 0.182-0.048 0.319-0.04 0.13-0.002 0.267-0.029 0.402-0.041 0.282-0.058 0.536 0.01 0.844-0.022l0.462-0.021c0.143 0.018 0.289 0.032 0.449 0.038 0.311 0.027 0.661 0.031 1.046 0.045l0.153-0.187-0.78-0.547-0.396-0.271-0.434-0.198c-0.295-0.121-0.576-0.281-0.888-0.354-0.308-0.086-0.608-0.187-0.935-0.238l0.17 0.198c0.015-2.034 0.063-4.069 0.024-6.104-0.024-2.03-0.024-4.065-0.104-6.102l-0.22 0.01z" fill="inherit"/>
			<path d="m211.36 448.54c0.242-0.102 0.455-0.209 0.638-0.318 0.187-0.108 0.334-0.226 0.503-0.337l0.398-0.354c0.123-0.119 0.209-0.244 0.314-0.367 0.223-0.242 0.337-0.502 0.462-0.761 0.103-0.264 0.179-0.527 0.209-0.798l0.273-2.203-2.002-0.26c-0.224-0.026-0.353-0.054-0.525-0.048-0.165 0.006-0.325 0.002-0.493 0.034-0.166 0.021-0.332 0.053-0.503 0.108-0.167 0.038-0.342 0.131-0.511 0.209-0.171 0.093-0.343 0.15-0.516 0.298-0.166 0.131-0.338 0.258-0.493 0.429-0.148 0.188-0.31 0.373-0.405 0.609-0.052 0.129-0.093 0.252-0.111 0.373-0.011 0.145 0.002 0.282 0.029 0.396l0.191 0.147c0.322-0.313 0.871-0.334 1.359-0.357 0.504 0.002 1.023 0.063 1.516 0.165l-0.189-0.271c-0.13 1.09-0.318 2.168-0.384 3.268l0.24 0.04z" fill="inherit"/>
			<path d="m220.93 429.7c-0.324 0.509-0.605 1.017-0.808 1.522-0.238 0.511-0.383 1.021-0.56 1.527-0.144 0.508-0.254 1.018-0.373 1.524-0.096 0.51-0.166 1.018-0.225 1.524-0.173 2.034-0.104 4.069 0.428 6.104l0.463 1.777 0.978-0.135c0.097-0.015 0.181-0.05 0.319-0.042 0.128-0.002 0.264-0.026 0.4-0.042 0.284-0.056 0.536 0.01 0.844-0.021l0.463-0.024c0.141 0.021 0.287 0.036 0.447 0.038 0.312 0.029 0.664 0.034 1.047 0.05l0.152-0.187-0.779-0.548-0.395-0.272-0.436-0.198c-0.295-0.119-0.576-0.28-0.889-0.354-0.308-0.087-0.607-0.188-0.935-0.238l0.173 0.196c0.012-2.034 0.062-4.069 0.023-6.104-0.025-2.035-0.023-4.067-0.104-6.103h-0.238v0.004h0.02z" fill="inherit"/>
			<path d="m218.84 445.83c0.241-0.102 0.455-0.208 0.636-0.319 0.188-0.107 0.336-0.225 0.504-0.338l0.399-0.354c0.122-0.119 0.209-0.244 0.313-0.367 0.223-0.242 0.338-0.502 0.463-0.76 0.102-0.264 0.177-0.526 0.209-0.798l0.275-2.202-2.004-0.26c-0.222-0.027-0.351-0.054-0.525-0.05-0.162 0.006-0.325 0.002-0.492 0.034-0.167 0.023-0.331 0.054-0.502 0.111-0.168 0.035-0.344 0.129-0.512 0.206-0.17 0.094-0.346 0.149-0.515 0.296-0.167 0.133-0.339 0.26-0.497 0.431-0.146 0.188-0.309 0.371-0.404 0.609-0.054 0.129-0.093 0.25-0.111 0.373-0.01 0.146 0.002 0.281 0.029 0.396l0.189 0.146c0.324-0.315 0.873-0.335 1.362-0.355 0.505 0 1.022 0.062 1.516 0.163l-0.188-0.27c-0.131 1.088-0.321 2.167-0.385 3.265l0.22 0.03z" fill="inherit"/>
		</g>
		<path d="m136.48 462.29c-0.001-0.002 1.354-0.569 2.962-1.771 0.408-0.294 0.846-0.615 1.268-0.992 0.432-0.365 0.897-0.745 1.321-1.188 0.424-0.438 0.916-0.848 1.319-1.342 0.423-0.48 0.85-0.969 1.278-1.457 0.391-0.521 0.782-1.036 1.167-1.546 0.397-0.501 0.705-1.062 1.048-1.566 0.346-0.503 0.62-1.036 0.894-1.532 0.285-0.485 0.51-0.983 0.719-1.439 0.853-1.816 1.14-3.258 1.141-3.256l-0.188-0.152s-3.325 3.983-6.651 7.97c-3.233 4.062-6.466 8.119-6.466 8.119l0.19 0.16z" fill="inherit"/>
	</g>
</g>
<g>
	<path d="m138.4 30.838s11.269-18.613-5.589-27.517c-16.859-8.904-25.815 2.29-31.433 8.007-5.616 5.719-90.122 89.21-96.32 91.881 0.844 2.978 5.451 3.718 5.451 3.718l0.32 7.572s12.654-9.844 27.754-29.369c16.52 1.71 35.289-2.875 35.289-2.875s42.786 11.155 64.526-51.418z" fill="#1A947F"/>
</g>
<path d="m138.4 30.838s11.269-18.613-5.589-27.517c-16.859-8.904-25.815 2.29-31.433 8.007-5.616 5.719-90.122 89.21-96.32 91.881 0.844 2.978 5.451 3.718 5.451 3.718l0.32 7.572s12.654-9.844 27.754-29.369c16.52 1.71 35.289-2.875 35.289-2.875s42.786 11.155 64.526-51.418z" enable-background="new    " fill="#fff" id="x_1_" opacity=".5"/>
<g>
	<path d="m147.18 22.658l-5.143-3.319s-0.853 4.508-1.59 7.053c2.19-0.308 6.73-3.734 6.73-3.734z" fill="#1A947F"/>
	<path d="m24.127 6.397l86.975 34.433s1.663 8.763-7.441 12.269c-9.106 3.503-48.746 14.347-79.533-46.702z" fill="#1A947F"/>
	<path d="m127.11 13.234s2.588 3.83 0.276 3.599c-2.32-0.231-0.28-3.599-0.28-3.599z" fill="#1A947F"/>
	<g>
		<path d="m53.825 68.057s-0.195 0.159-0.559 0.455c-0.359 0.302-0.916 0.714-1.561 1.301-1.292 1.167-3.23 2.753-5.39 4.807-1.092 1.016-2.27 2.12-3.475 3.325-1.218 1.192-2.51 2.444-3.792 3.791-0.646 0.666-1.304 1.343-1.971 2.028-0.334 0.37-0.672 0.739-1.01 1.112l-0.955 1.095c-1.285 1.457-2.592 2.938-3.896 4.417-1.283 1.503-2.566 3.004-3.83 4.479-1.279 1.461-2.468 2.962-3.668 4.371-1.204 1.404-2.318 2.803-3.398 4.108-1.075 1.312-2.09 2.55-3.03 3.695-1.888 2.272-3.402 4.234-4.594 5.466-0.59 0.623-1.043 1.125-1.384 1.435-0.351 0.293-0.536 0.451-0.536 0.451l0.109 0.216s0.916-0.462 2.23-1.604c1.334-1.117 3.133-2.83 5.216-4.951 4.167-4.242 9.49-10.118 14.708-16.082 1.287-1.507 2.574-3.013 3.841-4.495 0.627-0.743 1.25-1.481 1.864-2.21 0.636-0.713 1.268-1.415 1.885-2.106 2.479-2.767 4.79-5.35 6.771-7.563 3.965-4.427 6.606-7.377 6.606-7.377l-0.181-0.17z" fill="#1A947F"/>
		<path d="m10.6 107.01c-0.001-0.002 1.386-0.491 3.06-1.594 0.425-0.273 0.879-0.57 1.323-0.92 0.452-0.341 0.938-0.693 1.386-1.107 0.449-0.413 0.963-0.796 1.394-1.266 0.45-0.456 0.905-0.918 1.361-1.381 0.42-0.494 0.84-0.988 1.255-1.476 0.425-0.476 0.764-1.015 1.136-1.501 0.373-0.482 0.678-1.001 0.98-1.481 0.312-0.469 0.565-0.951 0.8-1.397 0.957-1.764 1.326-3.185 1.326-3.183l-0.179-0.165s-3.548 3.787-7.099 7.573c-3.461 3.869-6.922 7.735-6.922 7.735l0.179 0.17z" fill="#1A947F"/>
		<g>
			<path d="m81.238 78.306c1.165-0.014 2.312 0.043 3.448 0.143 0.571 0.037 1.135 0.102 1.698 0.17 0.562 0.072 1.131 0.117 1.688 0.211 1.114 0.181 2.24 0.322 3.34 0.558 1.105 0.219 2.216 0.415 3.305 0.694l0.941 0.24 0.302 0.964 0.669 2.137c0.213 0.715 0.395 1.439 0.594 2.159 0.186 0.723 0.41 1.435 0.563 2.167l0.499 2.186-0.55-0.802c0.609 0.521 1.182 1.091 1.774 1.635 0.596 0.539 1.155 1.126 1.726 1.698 0.578 0.563 1.113 1.181 1.668 1.773 0.54 0.613 1.069 1.239 1.573 1.896l-0.122 0.159-7.666-5.796-0.041-0.031-0.015-0.051c-0.844-2.863-1.73-5.713-2.531-8.589l0.131 0.127-13.05-3.454 0.05-0.194z" fill="#1A947F"/>
		</g>
		<g>
			<path d="m95.397 97.914c-0.147-0.395-0.256-0.782-0.338-1.163-0.07-0.378-0.149-0.759-0.175-1.128-0.048-0.374-0.075-0.743-0.071-1.106-0.008-0.365-0.02-0.731 0.006-1.089 0.079-1.437 0.351-2.833 0.796-4.192l2.447 1.867c-0.393 0.153-0.793 0.29-1.204 0.408-0.42 0.099-0.826 0.227-1.259 0.302-0.434 0.073-0.865 0.153-1.323 0.179-0.448 0.046-0.923 0.04-1.415 0.001l-0.092-0.178c1.459-0.826 2.946-1.598 4.425-2.386l0.336-0.179-0.074 0.379c-0.272 1.396-0.585 2.783-0.899 4.17-0.309 1.388-0.618 2.776-0.966 4.155l-0.194-0.04z" fill="#1A947F"/>
		</g>
	</g>
</g>
<g fill="#F97B63">
	<path d="m202.1 211.89s-3.502 65.739 35.789 66.126c39.289 0.39 40.455-27.229 40.455-27.229s-7.392-5.316-14.002-16.274c-6.61-10.96-32.67-50.63-62.24-22.63z" fill="inherit"/>
	<path d="m279.52 251.5s14.396 17.188 31.121 14.075c16.729-3.112 1.557-12.448-7.003-12.448-8.56-0.01-24.12-1.63-24.12-1.63z" fill="inherit"/>
	<path d="m279.52 250.79l15.949-13.227s20.61 8.17-15.95 13.23z" fill="inherit"/>
	<polygon fill="inherit" points="204.4 211.89 194.32 211.89 204.4 219.12"/>
	<path d="m234.84 275.4c-0.16 0.224-0.341 0.438-0.483 0.669-0.147 0.226-0.305 0.448-0.436 0.681-0.283 0.457-0.538 0.924-0.779 1.395-0.261 0.463-0.453 0.947-0.684 1.42-0.23 0.475-0.396 0.967-0.598 1.447-0.207 0.48-0.361 0.977-0.527 1.471-0.161 0.492-0.342 0.979-0.467 1.486l-0.411 1.504-0.327 1.528 0.738-0.784c-0.397 0.19-0.782 0.412-1.174 0.616-0.395 0.198-0.77 0.444-1.15 0.67-0.387 0.222-0.751 0.494-1.128 0.741-0.367 0.268-0.731 0.543-1.084 0.852l0.054 0.146 4.943-1.771 0.058-0.021 0.021-0.062 0.934-2.976c0.311-0.989 0.592-1.989 0.891-2.985l1.764-5.98-0.14-0.06z" fill="inherit"/>
	<path d="m230.43 290.96c0.153-0.173 0.285-0.345 0.397-0.519 0.104-0.172 0.215-0.349 0.296-0.521 0.076-0.174 0.167-0.346 0.23-0.521l0.17-0.519c0.193-0.69 0.25-1.384 0.215-2.073l-2.133 1.17c0.246 0.137 0.506 0.256 0.771 0.363s0.552 0.186 0.84 0.254c0.142 0.043 0.292 0.065 0.448 0.086 0.152 0.019 0.3 0.053 0.467 0.053 0.321 0.019 0.655 0.02 1.03-0.047l0.083-0.129c-0.919-0.656-1.876-1.252-2.812-1.877l-0.227-0.148-0.006 0.275c-0.014 0.689 0.014 1.383 0.018 2.073 0.008 0.691 0.021 1.384 0.057 2.074h0.156v0.02h-0.01z" fill="inherit"/>
	<path d="m245.61 276.96c-0.16 0.224-0.342 0.438-0.481 0.669-0.149 0.227-0.306 0.449-0.437 0.682-0.284 0.455-0.538 0.925-0.78 1.394-0.261 0.463-0.452 0.947-0.683 1.421-0.229 0.475-0.396 0.967-0.6 1.447s-0.359 0.977-0.525 1.47c-0.162 0.493-0.342 0.979-0.467 1.487l-0.412 1.505-0.328 1.526 0.74-0.781c-0.397 0.188-0.781 0.41-1.176 0.615-0.391 0.195-0.77 0.442-1.15 0.67-0.385 0.222-0.75 0.492-1.125 0.738-0.369 0.27-0.731 0.545-1.086 0.854l0.055 0.146 4.941-1.772 0.059-0.021 0.02-0.061 0.934-2.977c0.312-0.99 0.593-1.99 0.891-2.986l1.764-5.98-0.13-0.05z" fill="inherit"/>
	<path d="m241.48 292.42c0.158-0.173 0.287-0.345 0.402-0.518 0.103-0.173 0.211-0.347 0.295-0.519 0.074-0.175 0.164-0.347 0.229-0.521l0.171-0.521c0.194-0.69 0.25-1.385 0.215-2.074l-2.133 1.17c0.249 0.139 0.505 0.258 0.771 0.363 0.269 0.107 0.551 0.187 0.842 0.254 0.141 0.043 0.291 0.066 0.447 0.086 0.154 0.02 0.299 0.054 0.467 0.054 0.32 0.018 0.654 0.021 1.029-0.046l0.084-0.133c-0.92-0.653-1.875-1.25-2.812-1.875l-0.24-0.14-0.005 0.276c-0.014 0.688 0.013 1.383 0.019 2.074s0.021 1.383 0.055 2.072h0.14z" fill="inherit"/>
</g>
<g id="x_2_">
	<path d="m278.31 250.79s-7.391-5.316-14.004-16.274c-6.613-10.957-32.677-50.626-62.242-22.623 0 0 23.164-8.338 32.5 10.028 9.33 18.36 23.69 37.03 43.74 28.86z" enable-background="new    " opacity=".2"/>
	<path d="m279.52 251.5s14.396 17.188 31.121 14.075c16.729-3.112 1.557-12.448-7.003-12.448-8.56-0.01-24.12-1.63-24.12-1.63z" enable-background="new    " opacity=".2"/>
	<path d="m279.52 250.79l15.949-13.227s20.61 8.17-15.95 13.23z" enable-background="new    " opacity=".2"/>
	<path d="m210.78 213.58s5.871-0.984 4.851 1.933-4.85-1.93-4.85-1.93z" enable-background="new    " opacity=".2"/>
	<path d="m209.07 240.53s0.217 11.084 5.211 10.344c4.99-0.74-5.21-10.34-5.21-10.34z" enable-background="new    " opacity=".2"/>
	<path d="m210.95 251.32s0.214 11.083 5.211 10.343c5-0.74-5.21-10.34-5.21-10.34z" enable-background="new    " opacity=".2"/>
	<path d="m219.76 251.32s0.217 11.083 5.213 10.343c5-0.74-5.21-10.34-5.21-10.34z" enable-background="new    " opacity=".2"/>
	<path d="m219.76 260.76s0.217 11.082 5.213 10.342c5-0.74-5.21-10.34-5.21-10.34z" enable-background="new    " opacity=".2"/>
	<path d="m225.44 253.64s5.696 9.51 9.664 6.381c3.96-3.13-9.66-6.38-9.66-6.38z" enable-background="new    " opacity=".2"/>
	<path d="m227.68 272.28s8.604 6.987 11.265 2.692c2.67-4.29-11.26-2.69-11.26-2.69z" enable-background="new    " opacity=".2"/>
	<path d="m239.24 270.09s8.604 6.987 11.264 2.692c2.66-4.29-11.26-2.69-11.26-2.69z" enable-background="new    " opacity=".2"/>
	<path d="m227.56 262.88s5.352 9.709 9.431 6.728c4.07-2.98-9.43-6.73-9.43-6.73z" enable-background="new    " opacity=".2"/>
</g>
<g fill="#D8B54D">
	<path d="m116.06 303.53s3.501 65.738-35.789 66.127-40.456-27.229-40.456-27.229 7.391-5.317 14.002-16.275c6.611-10.96 32.675-50.63 62.243-22.63z" fill="inherit"/>
	<path d="m38.645 343.14s-14.394 17.188-31.122 14.074c-16.726-3.111-1.554-12.447 7.003-12.447s24.119-1.62 24.119-1.62z" fill="inherit"/>
	<path d="m38.645 342.43l-15.95-13.228c-0.001 0-20.618 8.17 15.95 13.23z" fill="inherit"/>
	<polygon fill="inherit" points="113.76 303.53 123.84 303.53 113.76 310.76"/>
	<path d="m83.324 367.04c0.161 0.225 0.341 0.438 0.484 0.669 0.149 0.228 0.304 0.448 0.435 0.681 0.284 0.457 0.538 0.924 0.78 1.396 0.26 0.463 0.453 0.946 0.683 1.419 0.23 0.477 0.397 0.967 0.598 1.449 0.207 0.479 0.361 0.975 0.528 1.47 0.161 0.492 0.341 0.979 0.466 1.485l0.411 1.506 0.328 1.527-0.738-0.785c0.397 0.191 0.782 0.414 1.173 0.617 0.393 0.197 0.768 0.443 1.151 0.67 0.385 0.222 0.75 0.494 1.128 0.74 0.367 0.27 0.732 0.543 1.083 0.854l-0.053 0.146-4.943-1.771-0.058-0.021-0.02-0.06-0.933-2.976c-0.31-0.99-0.591-1.99-0.889-2.988l-1.763-5.979 0.149-0.07z" fill="inherit"/>
	<path d="m87.731 382.6c-0.155-0.172-0.286-0.346-0.399-0.518-0.105-0.173-0.214-0.348-0.296-0.52-0.075-0.174-0.167-0.347-0.23-0.521l-0.171-0.521c-0.194-0.688-0.25-1.383-0.214-2.072l2.132 1.171c-0.246 0.135-0.504 0.256-0.77 0.362s-0.55 0.186-0.84 0.255c-0.141 0.04-0.292 0.063-0.449 0.086-0.153 0.018-0.3 0.052-0.466 0.052-0.322 0.02-0.655 0.021-1.03-0.046l-0.083-0.129c0.919-0.657 1.876-1.253 2.815-1.878l0.224-0.149 0.006 0.276c0.012 0.689-0.014 1.384-0.018 2.072-0.006 0.692-0.02 1.386-0.056 2.074h-0.155v0.01z" fill="inherit"/>
	<path d="m72.547 368.6c0.161 0.225 0.341 0.439 0.482 0.67 0.151 0.226 0.306 0.449 0.437 0.681 0.284 0.456 0.538 0.925 0.78 1.394 0.26 0.463 0.453 0.946 0.683 1.422 0.229 0.474 0.395 0.965 0.598 1.446 0.205 0.48 0.361 0.976 0.526 1.47 0.163 0.494 0.344 0.981 0.469 1.486l0.411 1.506 0.328 1.527-0.738-0.782c0.397 0.188 0.78 0.411 1.173 0.615 0.391 0.196 0.769 0.444 1.151 0.671 0.385 0.221 0.75 0.492 1.125 0.738 0.37 0.269 0.733 0.544 1.086 0.852l-0.054 0.146-4.942-1.772-0.058-0.021-0.02-0.061-0.933-2.976c-0.31-0.99-0.591-1.991-0.889-2.987l-1.763-5.979 0.148-0.05z" fill="inherit"/>
	<path d="m76.674 384.06c-0.157-0.172-0.286-0.346-0.401-0.519-0.104-0.173-0.212-0.346-0.296-0.521-0.076-0.172-0.165-0.344-0.229-0.518l-0.17-0.521c-0.195-0.688-0.25-1.383-0.214-2.072l2.132 1.171c-0.248 0.14-0.504 0.256-0.771 0.362-0.266 0.107-0.55 0.186-0.841 0.255-0.139 0.042-0.29 0.063-0.447 0.086-0.155 0.019-0.3 0.052-0.466 0.052-0.322 0.02-0.655 0.021-1.03-0.044l-0.083-0.133c0.919-0.655 1.876-1.251 2.813-1.876l0.226-0.148 0.004 0.275c0.014 0.689-0.012 1.384-0.018 2.072-0.004 0.693-0.02 1.386-0.054 2.074h-0.155z" fill="inherit"/>
</g>
<g id="x_4_">
	<path d="m39.851 342.43s7.391-5.315 14.005-16.273c6.612-10.955 32.676-50.626 62.242-22.622 0 0-23.164-8.339-32.5 10.028-9.34 18.36-23.698 37.03-43.749 28.86z" enable-background="new    " opacity=".2"/>
	<path d="m38.645 343.14s-14.394 17.188-31.122 14.074c-16.726-3.111-1.554-12.447 7.003-12.447s24.119-1.62 24.119-1.62z" enable-background="new    " opacity=".2"/>
	<path d="m38.645 342.43l-15.95-13.228c-0.001 0-20.618 8.17 15.95 13.23z" enable-background="new    " opacity=".2"/>
	<path d="m107.38 305.22s-5.87-0.983-4.85 1.933c1.02 2.92 4.85-1.93 4.85-1.93z" enable-background="new    " opacity=".2"/>
</g>
</svg>