<?xml version="1.0" encoding="UTF-8"?><svg xmlns="http://www.w3.org/2000/svg" xmlns:xlink="http://www.w3.org/1999/xlink" height="405.6" preserveAspectRatio="xMidYMid meet" version="1.0" viewBox="-2.7 -0.3 407.0 405.6" width="407.0" zoomAndPan="magnify"><g id="change1_1"><path d="M322.708,227.849c-2.924,3.985-5.825,7.989-8.844,11.902c-5.361,6.949-9.936,14.396-13.897,22.202 c-3.636,7.165-8.324,13.64-12.642,20.368c-4.82,7.509-9.224,15.289-13.657,23.038c-1.7,2.972-4.729,5.062-7.164,6.287 c-4.518,2.273-7.475,5.86-10.83,9.118c-14.303,13.887-30.472,25.014-48.713,33c-24.217,10.602-48.874,20.113-73.749,29.06 c-0.377,0.135-0.803,0.133-1.278,0.207c1.897,2.962,1.53,4.62-1.744,5.865c-7.912,3.009-15.375,1.81-21.587-3.89 c-10.702-9.821-21.112-19.969-27.751-33.21c-2.64-5.265-4.655-10.762-6.29-16.437c-2.474-8.588-6.523-16.602-9.5-25.016 c-5.029-14.211-9.717-28.534-13.678-43.075c-0.945-3.47,0.504-7.136,0.921-10.671c1.058-8.967,4.985-16.828,10.423-24.002 c3.75-4.947,8.318-8.974,13.3-12.581c5.707-4.131,10.768-8.918,15.065-14.512c0.644-0.838,1.455-1.556,2.229-2.286 c2.204-2.08,4.296-3.896,3.575-7.677c-0.591-3.1,1.993-5.847,2.677-8.936c0.931-4.202-1.947-13.423-5.314-16.013 c-0.305-0.235-0.729-0.528-1.058-0.486c-5.856,0.751-9.145-1.466-11.711-6.871c-3.293-6.933-3.284-14.131-1.122-20.991 c2.875-9.123,0.974-16.681-4.89-23.738c-1.549-1.864-2.873-3.914-4.372-5.821c-0.746-0.949-1.324-1.951-2.942-2.052 c-1.762-0.11-2.882-1.75-3.731-3.198c-5.649-9.634-6.911-13.968,0.066-23.207c3.224-4.269,2.963-8.436,1.608-13.087 c-2.104-7.223-5.835-13.695-9.078-20.396c-0.414-0.856-0.855-1.7-1.318-2.531c-3.827-6.857-2.746-11.39,4.886-15.857 c2.544-1.489,5.243-1.133,7.715-0.714c11.729,1.993,22.185,6.966,31.393,14.476c9.787,7.982,21.361,13.197,31.494,20.691 c12.568,9.295,25.321,18.321,36.844,28.934c3.737,3.442,8.313,5.839,11.835,9.549c0.245,0.258,0.477,0.736,1.028,0.444 c3.997-2.117,6.329,0.578,9.101,2.831c6.473,5.262,12.179,11.265,17.447,17.659c2.631,3.194,6.065,5.959,7.001,10.377 c0.132,0.624,0.872,1.179,1.433,1.643c8.39,6.942,16.014,14.739,23.206,22.823c6.362,7.152,13.151,13.86,19.587,20.912 c5.259,5.763,10.355,11.69,15.233,17.81c1.983,2.488,4.9,4.222,6.897,7.011c4.102,5.728,8.456,11.28,12.412,17.12 c0.301,0.444,0.58,0.902,0.868,1.353c0.293-0.208,0.585-0.416,0.878-0.624c-1.698-2.851-3.284-5.778-5.113-8.542 c-10.889-16.458-21.247-33.276-32.922-49.2c-3.867-5.274-8.417-10.043-12.432-15.215c-6.846-8.821-14.881-16.572-22.152-25.007 c-0.833-0.966-1.708-1.92-2.688-2.728c-3.489-2.879-4.32-5.063-2.723-9.178c2.894-7.455,7.398-13.092,16.11-14.149 c4.404-0.534,5.699-4.374,7.116-7.935c1.559-3.915,0.017-7.726-0.348-11.52c-0.335-3.491,0.165-3.615,2.914-5.435 c3.355-2.222,6.887-1.532,10.211-2.46c4.38-1.223,6.894-5.036,8.479-9.264c1.001-2.671,1.964-5.293,4.181-7.329 c1.652-1.517,2.807-1.18,3.907,0.412c5.335,7.724,10.326,15.689,13.894,24.374c5.044,12.276,10.367,24.458,14.526,37.077 c3.885,11.789,7.335,23.704,10.654,35.676c3.064,11.054,4.433,22.336,6.517,33.512c1.803,9.673,2.645,19.524,3.982,29.287 c0.213,1.553,0.747,3.037,0.747,4.661c0,1.123-1.161,3.673,2.138,2.191C323.218,223.312,323.953,226.152,322.708,227.849z M258.003,60.711c-1.672,2.386-3.241,4.625-5.3,7.563C256.09,66.262,257.602,63.929,258.003,60.711z" fill="#FB742B"/></g><g id="change2_1"><path d="M322.844,226.502c0.01,0.954,0.185,2.037-0.193,2.835c-0.649,1.37-1.3,3.4-3.081,3.169 c-1.725-0.224-1.094-2.193-1.285-3.502c-1.821-12.482-2.011-25.19-4.662-37.538c-3.702-17.25-5.82-34.863-11.291-51.709 c-6.318-19.456-11.753-39.22-19.255-58.264c-3.12-7.92-6.998-15.643-13.529-21.617c-1.661-1.519-2.543-1.444-3.501,0.395 c-0.972,1.865-1.869,3.77-2.848,5.631c-2.501,4.76-6.346,7.49-11.822,7.58c-2.151,0.035-4.167,0.569-6.109,1.37 c-3.192,1.317-4.3,3.385-3.794,6.784c0.695,4.678,1.409,9.242-0.471,13.96c-2.092,5.247-6.237,7.084-11.165,8.192 c-5.942,1.336-10.194,4.168-11.87,10.71c-1.072,4.186-0.583,6.704,2.621,9.738c7.335,6.946,14.396,14.223,21.094,21.786 c5.926,6.692,11.454,13.755,17.133,20.671c12.179,14.831,22.96,30.645,33.47,46.643c5.486,8.351,10.346,17.119,15.333,25.788 c1.025,1.782,2.956,4.418,0.584,5.906c-1.824,1.145-3.26-1.608-4.526-3.033c-4.793-5.395-8.167-11.818-12.576-17.496 c-7.895-10.169-15.011-20.913-23.418-30.718c-5.312-6.195-10.39-12.643-16.072-18.463c-5.923-6.067-11.429-12.485-17.096-18.759 c-8.271-9.156-18.622-16.004-27.005-25.027c-6.151-6.621-12.661-12.91-19.499-18.837c-8.247-7.149-17.058-13.575-25.798-20.093 c-10.421-7.771-20.851-15.529-31.25-23.331c-14.015-10.516-27.843-21.314-43.365-29.609c-5.227-2.793-10.801-5.076-16.723-5.395 c-4.701-0.254-9.388,1.167-13.759,3.035c-1.935,0.827-2.513,5.139-1.641,8.206c1.701,5.988,5.392,10.902,8.49,16.149 c4.399,7.449,5.638,15.22,1.19,23.061c-5.799,10.223-2.633,18.51,4.96,26.151c3.648,3.671,7.54,7.1,10.394,11.558 c4.561,7.126,5.345,14.496,2.344,22.33c-1.275,3.328-3.013,6.532-2.174,10.32c1.028,4.639,4.739,6.965,8.285,9.186 c3.976,2.491,7.021,5.855,9.743,9.468c1.739,2.307,3.007,5.098,2.64,8.296c-0.455,3.974,0.713,8.032-0.706,11.99 c-0.454,1.266,0.539,1.792,1.682,1.411c7.103-2.37,14.584-2.837,21.862-4.321c4.527-0.923,9.205-1.531,13.814-1.52 c7.346,0.018,14.643-1.56,21.966-0.79c8.575,0.901,17.198,1.152,25.731,2.789c6.267,1.203,12.636,2.028,18.928,3.192 c12.994,2.404,25.731,5.785,38.087,10.506c13.175,5.035,25.687,11.373,36.928,19.939c8.266,6.299,16.402,12.793,23.689,20.256 c0.223,0.229,0.516,0.426,0.651,0.699c0.472,0.957,1.851,1.897,0.92,2.968c-0.894,1.028-1.998-0.161-2.808-0.638 c-10.026-5.91-19.966-11.966-30.013-17.84c-16.737-9.786-34.643-16.897-53.282-21.982c-8.063-2.2-16.43-3.324-24.842-4.129 c-11.593-1.11-23.189-0.88-34.722-0.416c-12.233,0.492-24.403,2.211-36.469,4.842c-14.801,3.226-29.099,7.869-43.21,13.203 c-2.2,0.832-4.098,2.539-5.719,4.361C66.585,234.689,60.371,243.45,56.3,253.7c-2.37,5.97-0.937,10.826,3.303,14.954 c4.803,4.677,5.906,10.615,6.921,16.786c1.219,7.411,0.273,14.853,0.749,22.256c0.25,3.894,2.837,6.942,5.623,9.201 c6.115,4.958,7.444,11.466,8.056,18.788c0.79,9.447,3.109,18.496,12.689,23.286c7.306,3.653,9.866,10.512,12.384,17.524 c0.845,2.353,1.677,4.726,2.969,6.948c1.981,3.409,4.919,3.686,8.225,3.14c14.278-2.357,27.44-8.193,40.919-13.071 c8.247-2.985,16.152-6.667,23.772-10.923c11.482-6.413,22.845-13.044,34.165-19.74c9.882-5.845,19.785-11.676,29.171-18.313 c4.9-3.465,9.693-7.051,14.076-11.207c3.349-3.176,6.71-6.453,11.163-8.23c1.287-0.513,2.67-0.989,3.514,0.076 c0.829,1.046,0.19,2.26-0.767,3.367c-9.116,10.542-19.291,19.992-30.212,28.578c-23.297,18.316-48.253,34.011-75.111,46.636 c-16.904,7.946-34.401,14.114-52.68,17.981c-3.234,0.684-6.518,1.153-9.77,1.786c-9.155,1.783-17.343-3.197-22.658-10.46 c-1.803-2.464-3.055-5.281-5.029-7.671c-4.455-5.396-10.978-6.857-17.012-9.261c-6.412-2.555-11.945-5.977-13.696-13.316 c-0.677-2.84-0.325-5.72-0.296-8.575c0.066-6.535-2.461-12.067-6.978-16.463c-7.257-7.065-13.342-14.757-16.051-24.717 c-1.226-4.509-1.06-9.212-0.331-13.607c1.287-7.756,0.66-14.894-3.371-21.702c-3.008-5.08-5.247-10.5-4.343-16.523 c0.982-6.537,2.849-12.868,6.055-18.727c2.935-5.361,5.243-11.042,8.398-16.298c1.072-1.786,2.376-3.105,4.126-4.224 c9.268-5.927,19.108-10.681,29.697-14.679c-1.948-1.791-3.191-3.84-5.115-5.521c-3.597-3.142-4.438-7.655-3.734-12.242 c0.78-5.079-1.793-8.745-5.485-10.969c-7.889-4.754-10.78-16.149-7.806-24.693c0.62-1.781,1.359-3.523,2.101-5.258 c2.986-6.984,2.133-11-3.243-16.424c-2.593-2.616-5.636-4.632-7.973-7.676c-5.114-6.66-6.426-13.531-3.15-21.206 c1.212-2.839,2.322-5.812,2.468-8.768c0.247-5.002-1.226-9.656-4.7-13.606c-2.811-3.196-5.883-6.102-8.871-9.111 c-4.856-4.889-5.456-11.173-5.195-17.67c0.111-2.754,0.503-5.462,0.813-8.191c0.785-6.916-3.335-11.955-7.04-17.054 c-2.056-2.83-4.057-5.712-5.494-8.859c-4.295-9.411,0.906-15.283,8.807-18.412c4.799-1.901,10.337-1.918,15.66-1.204 c28.352,3.801,53.432,16.13,78.133,29.623c13.847,7.564,26.854,16.379,39.569,25.614c10.339,7.509,20.098,15.793,29.741,24.206 c7.183,6.266,14.567,12.299,21.604,19.355c1.351-3.871,1.577-7.801,4.948-10.366c1.903-1.448,3.999-2.366,6.133-3.223 c4.68-1.878,6.987-5.069,6.783-10.254c-0.204-5.196,0.44-10.255,3.576-14.742c2.316-3.314,5.6-5.001,9.34-5.324 c4.891-0.423,8.22-2.842,10.984-6.604c3.486-4.742,5.785-10.233,10.105-14.496c4.165-4.111,9.169-4.858,14.086-3.713 c2.905,0.677,5.312,3.809,7.773,6.027c12.644,11.392,20.444,26.052,27.483,41.185c4.081,8.774,8.34,17.505,11.285,26.736 c3.943,12.362,7.021,24.939,9.274,37.758c1.578,8.982,3.241,17.96,4.235,27.005c0.458,4.17,0.831,8.416,1.122,12.634 C323.216,196.734,322.686,211.62,322.844,226.502z M359.034,203.792c-1.322-2.103-3.764-3.241-6.539-2.938 c-1.817,0.199-2.609,1.219-2.588,3.026c0.441,1.119-0.431,3.472,1.519,3.197c2.148-0.304,2.526,0.903,3.204,2.116 c0.96,1.717,2.032,1.469,3.274,0.349C359.735,207.892,360.112,205.507,359.034,203.792z M342.077,195.595 c-0.867-0.231-1.53,0.368-2.215,1.371c-3.066,4.489,1.795,4.313,3.399,6.146c0.966,1.105,1.792,0.903,2.754,0.52 c0.435-0.173,0.782-0.691,1.056-1.124C348.823,199.733,346.122,195.723,342.077,195.595z" fill="#010A54"/></g><g id="change3_1"><path d="M143.028,295.374c-0.859-2.412-2.723-4.386-2.284-7.304c1.58-10.493,6.95-18.185,16.685-22.508 c8.948-3.974,18.466-5.005,25.415-4.802c14.812,0.07,26.796,1.262,38.674,3.135c13.964,2.203,27.846,4.932,41.745,7.535 c2.967,0.556,5.914,1.381,8.749,2.416c1.646,0.601,3.289,1.706,3.001,3.978c-0.261,2.06-2.029,2.323-3.516,2.595 c-5.403,0.989-10.852,1.531-16.358,1.667c-11.576,0.287-22.668,3.104-33.348,7.34c-10.926,4.333-21.377,9.954-33.102,12.039 c-4.334,0.771-8.655,1.905-13.095,1.757c-3.738-0.125-7.351,0.838-11.089,0.861c-4.167,0.026-8.214-0.862-12.364-0.941 C148.11,303.064,144.393,299.205,143.028,295.374z M361.975,203.873c-0.048,5.007-4.397,9.663-9.153,9.797 c-2.022,0.057-2.78,0.822-3.236,2.529c-3.033,11.35-10.378,20.075-17.538,28.942c-5.834,7.224-11.507,14.579-17.189,21.924 c-4.586,5.927-9.699,11.417-14.093,17.512c-5.299,7.351-10.355,14.883-16.083,21.925c-4.265,5.242-8.382,10.601-12.941,15.603 c-2.053,2.253-3.923,4.679-5.793,7.09c-1.778,2.293-4.815,2.38-6.95,4.116c-0.885,0.72-1.28-0.456-1.38-1.399 c-0.313-2.957,0.57-5.636,1.854-8.209c8.279-16.587,17.637-32.512,28.026-47.897c9.885-14.637,20.114-29.035,29.97-43.69 c5.278-7.848,9.515-16.558,17.014-22.683c2.714-2.217,4.667-3.939,2.825-7.797c-0.654-1.37-0.404-3.452,0.549-5.21 c1.264-2.334,2.864-4.181,5.604-3.782c2.643,0.385,5.092,1.67,5.797,4.604c0.582,2.421,1.126,4.051,4.073,2.194 c1.543-0.972,3.488-0.659,5.189,0.017C360.691,200.323,362.723,201.384,361.975,203.873z M347.831,200.757 c-0.912-1.727-2.46-2.771-4.201-3.511c-1.406-0.597-2.665,0.111-3.805,0.868c-0.232,0.154-0.233,0.76-0.218,1.153 c0.02,0.515,0.388,0.736,0.857,0.523c2.318-1.054,3.514,0.144,4.412,2.098c0.299,0.648,0.922,0.851,1.585,0.518 C347.122,202.073,347.725,201.647,347.831,200.757z M358.457,206.485c0.26-1.668-0.941-2.542-2.209-3.333 c-1.302-0.813-2.693-1.188-4.169-0.451c-0.697,0.348-1.18,0.86-1.115,1.732c0.083,1.109,0.914,0.945,1.623,0.98 c1.43,0.071,3.107-0.313,3.567,1.693c0.168,0.734,0.073,1.507,1.191,1.384C358.588,208.354,358.433,207.438,358.457,206.485z M173.505,154.686c7.714,5.495,16.868,8.128,24.859,13.094c11.896,7.392,24.837,13.133,35.885,21.847 c7.336,5.786,15.65,9.911,23.348,15.054c1.904,1.272,3.536,2.929,5.699,3.84c1.365,0.574,2.854,0.841,3.755-0.315 c0.944-1.21,0.272-2.498-0.793-3.645c-7.614-8.202-13.879-17.52-21.654-25.632c-10.67-11.134-21.33-22.252-32.76-32.618 c-3.307-2.999-6.622-6.071-9.423-9.524c-4.647-5.726-10.011-10.663-15.695-15.258c-2.063-1.667-4.38-3.351-7.341-3.304 c-3.81,0.055-6.533,2.121-8.94,4.789C161.354,133.1,162.271,146.685,173.505,154.686z M260.893,138.454 c-1.893,2.409-2.708,5.154-2.592,8.29c0.154,4.178,1.382,8.049,3.193,11.69c3.65,7.341,7.897,14.331,12.91,20.857 c5.393,7.02,10.636,14.155,15.891,21.28c1.444,1.958,3.341,2.181,5.369,1.547c1.902-0.594,2.187-2.246,2.319-4.09 c0.449-6.301-0.964-12.447-2.002-18.52c-1.649-9.653-4.748-19.002-7.857-28.325c-2.531-7.587-5.586-8.918-12.591-4.934 c-3.009,1.712-4.862,5.676-3.507,9.297c1.56,4.171,4.121,7.819,6.063,11.786c1.098,2.243,2.829,2.105,4.488,1.244 c2.115-1.098,1.272-2.759,0.267-4.228c-1.976-2.887-3.204-6.163-4.856-9.212c-1.601-2.955,1.294-2.864,2.421-3.679 c1.761-1.275,1.879,0.473,2.359,1.662c4.249,10.509,7.179,21.384,8.843,32.577c0.458,3.083,2.073,5.985,1.433,10.048 c-5.263-7.785-9.973-15.101-15.049-22.152c-4.132-5.739-7.789-11.75-11.151-17.935c-1.845-3.394-2.87-7.413-0.929-10.941 c2.882-5.241,7.607-8.771,13.106-11.096c4.167-1.762,6.726-0.589,8.811,3.285c4.689,8.709,6.392,18.296,8.361,27.799 c1.7,8.204,2.979,16.498,4.813,24.669c2.134,9.509,3.93,19.062,5.144,28.726c0.14,1.113,0.214,2.349,1.533,2.347 c1.056-0.002,1.214-1.129,1.475-2.118c0.941-3.565,0.313-7.046,0.096-10.627c-0.354-5.808-1.36-11.504-2.636-17.086 c-2.092-9.162-3.67-18.423-5.719-27.593c-2.031-9.086-3.643-18.29-7.128-26.925c-2.386-5.912-5.501-9.693-11.925-9.571 C272.581,126.7,266.245,131.641,260.893,138.454z M280.053,262.422c-7.155,0.76-14.149-0.178-21.041-1.76 c-5-1.147-10.077-1.773-15.083-2.843c-6.134-1.312-12.313-2.417-18.492-3.509c-7.624-1.348-15.219-2.854-22.831-4.254 c-11.099-2.041-22.521-2.306-33.322-5.959c-1.291-0.436-2.587-0.946-3.758-1.63c-3.284-1.921-3.911-4.51-2.847-8.279 c1.843-6.529,3.57-12.903,9.407-17.237c3.324-2.468,7.032-2.592,10.876-2.497c8.062,0.024,15.815,2.025,23.492,4.122 c14.891,4.067,29.569,8.837,43.429,15.741c11.641,5.799,22.953,12.18,32.428,21.286c0.991,0.953,2.897,1.696,2.05,3.821 C283.569,261.416,282.288,262.185,280.053,262.422z M281.603,258.443c-0.506-1.363-1.353-1.761-2.154-2.276 c-11.642-7.489-23.746-14.057-36.388-19.764c-12.694-5.73-26.003-9.475-39.227-13.543c-6.217-1.912-12.721-2.561-19.102-3.739 c-3.81-0.703-8.097,1.698-10.152,5.109c-2.374,3.94-3.041,8.418-4.459,12.662c-0.499,1.494,0.25,1.677,1.241,1.83 c8.388,1.296,16.782,2.553,25.17,3.85c5.496,0.85,11.001,1.658,16.473,2.644c8.759,1.579,17.459,3.517,26.25,4.882 c9.103,1.414,18.081,3.206,26.933,5.789C271.088,257.316,276.071,258.804,281.603,258.443z M257.016,295.866 c-7.361,9.003-16.624,16.049-24.855,24.154c-11.055,10.885-23.943,19.006-37.913,25.447c-6.903,3.183-14.412,4.336-23.153,5.068 c-8.191-2.127-17.054-5.248-22.857-13.302c-6.274-8.709-1.707-14.249,6.94-16.483c21.194-5.474,42.165-11.638,62.664-19.305 c8.172-3.056,16.041-6.916,24.163-10.12c3.676-1.45,7.599-2.349,11.475-3.195c2.052-0.448,4.392-0.495,5.505,1.984 C260.091,292.577,258.372,294.208,257.016,295.866z M255.868,291.491c-1.398-0.636-2.465-0.493-3.572-0.015 c-3.277,1.415-6.604,2.717-9.855,4.187c-15.992,7.228-32.207,13.889-49.018,18.987c-12.82,3.887-25.709,7.546-38.539,11.403 c-3.841,1.155-4.27,2.542-2.327,6.035c5.534,9.948,16.82,14.212,28.777,11.097c6.766-1.763,13.075-4.396,19.141-7.907 c9.795-5.67,19.502-11.326,27.603-19.45c4.402-4.415,9.485-8.145,14.201-12.253C246.805,299.632,251.254,295.6,255.868,291.491z M97.698,159.787c-3.231-4.015-4.036-6.102-2.41-9.011c2.047-3.662,5.662-3.351,8.992-3.212c11.728,0.488,22.909,3.723,34.065,7.063 c16.854,5.045,33.738,9.987,50.584,15.057c5.548,1.67,10.873,3.939,15.808,7.013c1.27,0.791,2.972,1.524,2.483,3.534 c-0.527,2.169-1.805,3.291-4.27,3.276c-13.627-0.084-27.254-0.04-40.882-0.039c-12.877,0.001-25.755,0.068-38.631-0.025 c-7.323-0.053-11.63-2.197-13.725-9.146c-0.98-3.251-3.107-5.811-5.535-8.004C101.893,164.228,99.653,162.217,97.698,159.787z M101.06,155.005c1.529,2.085,3.36,3.83,5.189,5.591c4.142,3.99,8.26,8.063,9.338,13.976c0.533,2.926,2.022,3.599,4.592,3.516 c7.526-0.242,15.054-0.288,22.584-0.572c15.307-0.578,30.651-0.228,45.979-0.133c4.01,0.025,7.987,1.205,12.367,0.458 c-0.478-0.309-0.624-0.451-0.797-0.508c-11.26-3.668-22.913-5.915-34.231-9.337c-17.816-5.387-35.606-10.865-53.839-14.669 c-3.132-0.653-6.412-1.269-9.729-1.022C100.408,152.462,99.367,152.696,101.06,155.005z M97.899,76.668 c13.334,6.161,25.795,13.91,38.416,21.377c4.707,2.785,10.028,4.455,14.711,7.384c4.66,2.916,9.292,5.847,13.08,9.899 c1.084,1.159,2.121,2.172,1.085,4.149c-1.086,2.073-2.368,1.243-3.96,1.157c-17.007-0.916-32.577-7.777-48.829-11.776 c-8.824-2.172-17.67-4.283-26.461-6.59c-4.279-1.123-8.43-2.886-11.847-5.76c-4.056-3.411-4.117-5.97-0.566-9.946 c1.269-1.421,2.337-2.864,1.993-4.799c-1.017-5.711,3.884-9.235,9.522-9.141C89.692,72.789,93.822,74.784,97.899,76.668z M106.612,85.971c-5.848-3.12-11.716-6.327-18.109-8.198c-4.332-1.268-8.484-1.215-7.686,5.207c0.35,2.817-0.864,5.2-2.668,7.201 c-1.22,1.354-0.9,1.981,0.417,2.978c3.379,2.56,7.365,3.641,11.319,4.532c10.924,2.462,21.672,5.59,32.534,8.273 c12.799,3.161,25.22,7.789,38.951,10.081c-2.344-2.093-4.32-3.428-6.325-4.751c-6.118-4.037-13.141-6.189-19.576-9.522 C125.733,96.731,116.288,91.132,106.612,85.971z M109.251,320.744c-3.638,3.327-7.987,4.913-12.8,5.346 c-3.912,0.393-6.367-1.686-7.788-4.91c-1.461-3.314-3.916-5.267-6.976-6.99c-4.274-2.406-7.518-5.716-7.655-11.177 c-0.054-2.173-1.196-4.277-0.483-6.55c1.725-5.492,6.685-6.518,11.193-7.529c8.319-1.864,16.848-2.429,25.347-3.157 c6.486-0.555,12.838-2.374,19.418-2.278c4.757,0.069,5.982,1.611,4.341,6.007c-1.975,5.289-4.906,10.113-8.582,14.347 C120.182,309.71,114.992,315.496,109.251,320.744z M103.747,315.601c7.996-7.908,15.338-16.395,22.355-25.935 c-2.009,0-3.724-0.249-5.342,0.042c-8.7,1.559-17.616,1.092-26.286,2.885c-4.389,0.907-8.976,1.036-13.002,3.342 c-0.896,0.513-2.247,0.844-2.075,2.135c0.538,4.012,0.33,8.467,4.422,10.951c4.456,2.704,8.212,5.93,10.06,10.979 c0.532,1.452,1.388,1.43,2.728,0.785C99.321,319.479,101.65,317.675,103.747,315.601z M148.88,349.777 c-5.381-7.637-15.674-8.66-20.932-2.186c-3.192,3.93-3.108,8.033,0.239,11.722c2.519,2.777,5.749,2.985,9.406,0.828 c2.089-1.233,2.043-2.641,0.981-4.503c-1.06-1.859-2.512-2.068-3.92-0.768c-1.881,1.737-2.759,0.149-3.328-1 c-1.004-2.027,0.818-3.529,1.608-5.152c0.596-1.224,1.908-1.732,3.292-1.377c4.488,1.15,8.167,3.452,10.369,7.685 c1.78,3.422,1.459,7.492-1.16,9.668c-3.234,2.686-6.593,5.28-10.457,7.058c-2.454,1.129-4.755,0.707-6.772-1.062 c-1.948-1.707-3.171-3.859-4.132-6.278c-2.286-5.758-5.42-11.008-10.386-14.898c-3.394-2.658-3.338-3.079-0.381-6.344 c6.405-7.072,14.374-12.059,22.274-17.152c4.854-3.13,6.625-10.917,3.337-15.637c-1.398-2.008-3.254-3.392-5.943-2.084 c-0.754,0.367-1.736,0.519-1.869,1.523c-0.158,1.187,0.769,1.718,1.681,1.993c1.765,0.533,2.137,1.686,2.001,3.374 c-0.488,6.076-3.188,10.396-8.913,13.073c-7.36,3.442-13.901,8.094-18.569,14.977c-2.564,3.781-2.012,6.853,1.706,9.483 c0.949,0.671,1.847,1.43,2.689,2.232c4.179,3.986,6.238,9.261,8.557,14.352c2.684,5.894,10.212,9.758,16.657,6.158 c3.437-1.92,6.704-4.05,9.721-6.486c3.143-2.538,6.002-5.514,5.529-10C152.413,355.325,150.766,352.453,148.88,349.777z M76.459,270.226c-1.019-3.511-2.648-6.583-4.84-9.477c-4.201-5.546-1.933-14.024,7.019-14.543 c5.752-0.334,10.978,1.647,16.243,3.374c9.166,3.007,18.389,5.636,28.024,6.716c4.039,0.453,7.999,1.597,12.034,2.114 c2.01,0.258,3.19,1.092,3.598,2.929c0.458,2.066-0.337,3.712-2.089,4.931c-3.661,2.546-7.602,4.544-11.868,5.809 c-5.965,1.769-12.156,2.285-18.289,3.146c-4.451,0.625-8.885,1.502-13.24,2.606c-1.601,0.406-3.165,0.166-4.588,0.511 C82.756,278.896,77.805,274.863,76.459,270.226z M77.238,258.199c2.475,3.2,4.535,6.621,5.705,10.482 c0.957,3.155,2.9,4.546,6.451,4.218c0.422,0,1.223,0.183,1.902-0.028c8.983-2.792,18.454-2.599,27.566-4.554 c5.03-1.079,9.933-2.599,14.521-5.013c0.805-0.424,1.605-0.815,1.299-1.852c-0.255-0.865-0.963-1.392-1.916-1.428 c-0.637-0.024-1.276,0.017-1.914,0.026c-8.342,0.125-16.63-0.215-24.789-2.247c-8.013-1.995-15.741-4.983-23.842-6.675 c-2.561-0.535-4.623-0.182-6.164,1.979C74.573,255.19,76.123,256.756,77.238,258.199z M258.348,90.198 c1.981,8.97,5.585,17.166,11.666,24.147c2.305,2.646,5.011,4.897,8.769,3.507c4.107-1.519,3.845-5.371,3.992-8.869 c0.009-0.21-0.047-0.422-0.104-0.881c-0.324-1.511,0.086-3.284-0.455-5.099c-2.639-8.848-6.948-16.852-11.989-24.506 c-2.45-3.721-4.831-4.278-9.135-2.219c-3.524,1.685-4.932,4.794-3.935,8.436C257.652,86.516,257.944,88.372,258.348,90.198z M151.646,129.715c-15.376-6.564-31.406-10.132-48.229-9.209c-2.4,0.132-4.739,1.016-6.828,2.311 c-4.133,2.561-4.506,5.251-1.212,8.732c0.648,0.685,1.418,1.263,2.174,1.834c3.596,2.716,7.807,4.065,12.041,5.343 c8.461,2.553,17.202,3.766,25.891,5.15c2.349,0.374,5.129,1.001,7.246-1.192c3.117-3.229,2.334-8.283-1.984-10.32 c-6.505-3.07-13.454-4.205-20.656-3.572c-1.189,0.105-2.216,0.756-2.328,1.791c-0.121,1.127,0.955,1.8,2.069,1.97 c2.394,0.364,4.746,0.894,7.222,0.825c3.734-0.104,7.227,1.257,10.743,2.338c1.566,0.482,1.765,1.754,1.485,3.094 c-0.308,1.472-1.399,0.769-2.302,0.723c-8.115-0.416-15.912-2.522-23.764-4.365c-4.744-1.114-9.27-2.647-13.262-5.562 c-1.998-1.459-1.791-2.655,0.245-3.647c2.397-1.168,5.009-1.607,7.658-1.689c12.674-0.395,24.788,2.997,36.99,5.658 c6.345,1.383,11.323,4.392,10.492,12.377C158.538,137.565,156.965,131.986,151.646,129.715z M236.164,110.181 c2.547,6.85,6.789,12.576,11.816,17.774c2.001,2.069,4.141,3.865,7.036,4.692c5.085,1.452,8.296-1.461,7.438-6.841 c-1.647-10.329-7.687-17.788-15.716-23.864c-2.495-1.889-5.296-1.614-8.08-0.128c-2.223,1.186-3.409,2.775-3.104,5.128 c0,0.737-0.079,1.285,0.023,1.796C235.676,109.238,235.982,109.693,236.164,110.181z M139.865,249.808 c1.652-0.181,3.453-0.715,4.979-1.784c3.553-2.491,5.615-8.506,4.512-13.545c-0.984-4.496-3.224-6.82-7.149-7.066 c-4.235-0.265-8.37,0.628-12.499,1.448c-2.358,0.469-4.496,1.792-4.642,4.073c-0.151,2.367,1.686,4.171,3.961,5.266 c1.037,0.499,1.936,0.882,2.889-0.049c1.068-1.042-0.116-1.664-0.43-2.471c-0.433-1.111-1.476-2.664,0.757-2.82 c1.714-0.12,3.312-0.624,4.972-0.843c7.151-0.946,7.901-0.207,7.338,7.06c-0.063,0.82-0.494,1.605-0.621,2.427 c-0.389,2.507-2.215,3.383-4.331,4.049c-3.966,1.248-7.945,0.853-11.857-0.044c-5.579-1.28-8.19-5.139-7.403-10.76 c0.228-1.63,1.034-3.174,1.308-4.803c0.619-3.675,3.216-4.924,6.404-5.51c4.241-0.779,8.481-1.488,12.812-1.694 c2.054-0.098,4.063-0.939,6.115-1.327c1.036-0.196,2.07-0.506,1.933-1.641c-0.143-1.178-1.366-0.695-2.124-0.717 c-2.234-0.066-4.471-0.024-6.706-0.028c-3.704,0.074-7.371,0.212-11.084,0.696c-8.561,1.116-10.756,2.625-12.972,10.82 c-0.465,1.718-0.775,3.498-0.955,5.269c-0.35,3.436,0.67,6.392,3.166,8.903C124.407,250.918,132.109,250.657,139.865,249.808z M80.456,65.056C86.58,68.19,93.09,70.363,99.6,72.438c3.268,1.042,6.848,0.42,6.284-4.651c0.439-1.259,0.063-2.826-1.286-3.641 c-3.373-2.039-7.058-3.435-10.898-4.35c-0.899-0.214-1.742,0.281-2.04,1.177c-0.355,1.068,0.52,1.455,1.297,1.843 c2.28,1.138,4.698,1.891,7.19,2.316c2.106,0.359,2.211,1.816,1.964,3.333c-0.39,2.396-1.925,0.682-2.613,0.391 c-6.095-2.587-12.481-4.494-18.304-7.718c-2.457-1.361-4.625-3.009-5.447-5.893c-0.458-1.608-0.256-2.443,1.786-2.008 c11.055,2.354,21.517,6.261,31.724,11.121c5.601,2.667,9.294,6.722,12.054,11.981c0.394,0.75,0.891,1.451,1.227,2.224 c0.236,0.542,0.503,1.05,1.104,0.809c0.537-0.215,1-0.557,0.762-1.441c-1.334-4.957-3.099-9.922-7.218-13.027 c-5.884-4.435-12.685-7.433-19.399-10.503c-6.629-3.032-13.909-3.759-20.704-6.193c-2.853-1.022-5.788,0.526-6.015,2.858 c-0.203,2.084-0.319,4.215,0.843,6.192C73.965,60.753,76.883,63.228,80.456,65.056z" fill="#26ADEB"/></g><g id="change4_1"><path d="M8.603,5.232c0.648-1.481,2.981,0.02,4.474,0.57c9.641,3.554,14.963,10.933,17.676,20.438 c1.486,5.205,2.053,10.567,1.592,15.999c0,2.344-0.021,4.688,0.005,7.031c0.035,3.173,1.091,5.897,3.312,8.251 c5.15,5.459,10.358,10.867,12.582,18.381c1.881,6.355,1.386,12.525-0.436,18.801c-1.131,3.897-2.45,7.849-1.511,12.075 c0.996,4.485,4.51,6.759,7.896,9.065c4.86,3.31,9.354,6.812,11.081,12.834c1.646,5.74,1.816,11.317-1.075,16.754 c-1.188,2.234-2.288,4.518-3.343,6.818c-2.068,4.507-0.645,9.272,3.317,12.165c4.903,3.58,9.535,7.399,10.989,13.812 c0.602,2.656,0.672,5.346,0.223,7.897c-0.805,4.577-1.204,8.969,1.164,13.222c0.342,0.615,0.474,1.406,0.498,2.122 c0.031,0.903,0.343,2.076-0.884,2.46c-1.162,0.364-1.976-0.32-2.716-1.205c-3.851-4.604-3.673-10.009-2.822-15.39 c0.784-4.959,0.316-9.45-3.273-13.189c-2.133-2.222-4.409-4.312-6.695-6.379c-3.305-2.989-6.051-9.31-4.327-15.057 c1.308-4.362,3.847-8.132,5.084-12.505c1.483-5.243-1.163-14.408-6.142-17.456c-3.147-1.926-6.164-4.064-8.86-6.686 c-4.834-4.701-5.587-10.167-4.447-16.532c0.738-4.119,2.189-8.13,2.416-12.283c0.35-6.412-1.73-12.279-5.544-17.408 c-2.46-3.309-5.43-6.24-7.881-9.555c-2.077-2.809-3.339-6.006-3.248-9.68c0.132-5.323,0.221-10.66-0.004-15.977 c-0.491-11.597-5.551-20.542-15.771-26.424C10.621,7.443,7.783,7.106,8.603,5.232z M107.4,399.099 c-0.417-0.459-0.991-0.791-1.53-1.122c-3.342-2.053-5.86-4.85-7.545-8.384c-2.08-4.362-4.088-8.76-6.204-13.104 c-2.107-4.327-5.312-7.553-9.716-9.631c-3.445-1.625-7.107-2.53-10.708-3.661c-5.641-1.772-11.349-5.388-10.558-14.044 c0.299-3.275-0.056-6.605,0.07-9.902c0.275-7.246-2.644-13.117-7.59-18.145c-2.911-2.96-6.015-5.741-8.773-8.834 c-2.664-2.987-4.457-6.732-3.988-10.684c0.662-5.585,1.977-11.111,3.935-16.449c3.042-8.294,2.955-16.444-2.737-23.57 c-4.039-5.057-3.559-10.781-2.613-16.109c1.659-9.35,4.434-18.509,8.747-27.091c0.306-0.609,1.277-1.473-0.075-2.084 c-1.04-0.47-1.602,0.24-2.04,0.995c-1.895,3.272-3.926,6.432-5.44,9.957c-2.787,6.489-4.799,13.219-5.816,20.112 c-0.895,6.07-0.782,12.273,3.955,17.37c2.507,2.697,3.291,6.192,3.489,9.932c0.341,6.441-3.088,11.902-4.207,17.946 c-0.762,4.114-2.6,8.187-1.83,12.377c1.173,6.379,4.129,12.132,9.304,16.13c7.818,6.041,12.048,13.483,11.093,23.533 c-0.768,5.206,0.425,10.176,2.75,14.694c2.94,5.712,8.197,8.626,14.378,9.857c8.328,1.659,14.146,6.177,17.142,14.296 c1.198,3.247,2.762,6.392,4.466,9.411c2.401,4.254,5.721,7.59,10.695,8.771c0.788,0.187,1.819,0.362,2.329-0.538 C108.941,400.138,107.913,399.662,107.4,399.099z M27.121,68.938c6.394,4.649,10.448,10.819,9.891,19.401 c-0.369,5.685-0.982,11.352-1.035,17.084c-0.081,8.688,4.091,14.87,10.327,20.034c1.962,1.624,3.533,3.449,4.136,5.744 c1.724,6.561,0.589,13.124-0.225,19.731c-0.753,6.119-1.83,12.527,2.915,17.823c1.561,1.743,3.354,3.282,4.868,5.061 c3.126,3.675,5.717,7.395,4.105,12.822c-1.651,5.559-1.182,11.027,3.119,15.546c0.804,0.846,1.938,2.071,2.91,1.461 c1.445-0.907,0.026-1.91-0.571-2.861c-2.367-3.769-4.154-7.371-2.836-12.356c1.228-4.645,0.724-9.618-2.625-13.864 c-2.059-2.61-4.473-4.817-6.783-7.147c-3.312-3.341-4.539-7.707-3.868-11.908c1.112-6.96,2.465-13.827,2.215-20.932 c-0.096-2.738-0.944-5.081-2.151-7.455c-1.674-3.29-4.995-4.851-7.343-7.404c-6.602-7.18-6.392-15.818-5.365-24.746 c0.589-5.123,0.852-10.317-0.347-15.469c-1.322-5.68-5.438-9.375-9.55-12.731c-5.68-4.635-7.372-10.396-7.238-17.315 c0.112-5.773,1.289-11.427,0.218-17.361C19.84,20.738,12.077,14.9,2.65,9.465c0.052,2.229,1.431,2.623,2.381,3.289 c9.283,6.505,15.11,14.754,14.45,26.74c-0.227,4.12-1.198,8.168-0.866,12.345C19.163,58.719,21.113,64.57,27.121,68.938z M79.892,85.051c6.159,1.055,8.651,5.529,10.305,10.845c0.217,0.696,0.595,1.357,0.986,1.979c0.304,0.483,0.275,1.462,1.155,1.25 c0.966-0.232,0.865-1.112,0.667-1.843c-0.672-2.477-1.39-4.942-2.129-7.543c2.988,0.493,5.165,1.425,5.941,4.663 c0.503,2.099,1.908,3.969,2.787,5.994c0.436,1.003,1.07,1.365,1.973,0.929c0.963-0.465,0.396-1.22,0.163-1.917 c-0.649-1.938-1.24-3.894-1.951-6.15c2.286,0.247,3.721,0.633,4.172,3.067c0.397,2.143,1.512,4.158,2.978,5.875 c0.335,0.392,0.69,0.899,1.308,0.708c0.827-0.256,0.721-1.056,0.592-1.595c-0.38-1.59-0.91-3.144-1.405-4.793 c3.024,0.363,5,1.567,5.825,4.488c0.534,1.893,2.363,2.944,3.649,4.337c0.422,0.457,0.984,0.955,1.651,0.431 c0.734-0.576,0.105-1.051-0.172-1.61c-0.658-1.329-1.955-2.364-2.204-4.124c3.728,1.165,7.322,1.972,8.55,6.09 c0.138,0.463,0.619,0.866,1.021,1.2c0.928,0.772,1.778,2.409,3.136,1.456c1.272-0.892-0.325-2.052-0.466-3.127 c-0.052-0.395-0.362-0.756-0.007-0.97c3.938,0.593,6.755,2.859,9.323,5.547c0.733,0.767,1.552,1.736,2.726,1.085 c1.536-0.851-1.12-1.609,0.076-2.776c5.824,2.069,11.811,4.203,17.804,6.318c0.972,0.343,2.244,0.94,2.744-0.369 c0.585-1.536-1.013-1.536-1.91-1.898c-5.641-2.272-11.221-4.706-17.059-6.458c-0.563-0.169-1.314-0.007-1.221-1.025 c0.31-3.403-0.76-4.415-3.692-2.665c-3.17,1.893-5.272,0.138-8.263-0.863c0.788-0.516,1.168-0.688,1.448-0.962 c0.716-0.705,2.297-0.828,1.469-2.561c-0.8-1.674-1.958-1.527-3.414-1.215c-0.924,0.198-1.625,0.656-2.086,1.336 c-1.265,1.865-2.877,1.753-4.629,0.978c-1.134-0.502-2.222-1.107-3.835-1.92c0.914-0.557,1.403-0.77,1.785-1.104 c0.866-0.757,2.66-1.156,1.786-2.775c-0.805-1.492-2.372-1.234-3.676-0.611c-1.135,0.542-2.173,1.3-3.218,2.015 c-2.243,1.536-4.477,0.107-5.676-1.067c-1.055-1.032,1.387-1.729,2.264-2.588c0.681-0.666,1.482-1.223,2.095-1.943 c0.663-0.78,2.354-1.293,1.164-2.763c-1.156-1.429-2.427-0.757-3.64,0.074c-1.84,1.261-3.596,2.611-5.122,4.256 c-1.818,1.96-4.048,0.691-5.045-0.421c-1.362-1.52,1.017-1.861,1.899-2.643c0.874-0.775,1.771-1.543,2.526-2.426 c0.591-0.692,2.313-1.119,1.214-2.39c-0.811-0.938-2.079-1.262-3.372-0.251c-2.075,1.623-4.505,2.818-6.07,5.044 c-1.596,2.269-3.62,0.577-4.728-0.092c-1.514-0.914,0.525-1.737,1.112-2.491c0.778-1.001,1.812-1.798,2.666-2.746 c0.972-1.077,1.755-2.301,0.415-3.599c-1.476-1.43-2.728-0.053-3.46,0.826c-1.431,1.717-3.123,3.234-4.386,5.03 c-1.046,1.488-2.018,1.347-3.306,0.875c-2.065-0.756-4.061-1.772-6.298-1.912C78.554,84.754,79.404,84.968,79.892,85.051z M86.481,386.029c-2.861-5.239-6.927-9.667-12.051-12.775c-4.041-2.452-8.452-4.3-12.728-6.356 c-2.568-1.235-4.427-3.192-6.029-5.474c-3.701-5.272-3.632-11.588-4.247-17.504c-1.02-9.797-5.396-17.308-12.93-23.268 c-3.969-3.14-6.748-7.394-7.487-12.117c-1.129-7.214,0.347-14.535,0.993-21.801c0.567-6.374,0.54-12.68-4.618-17.585 c-2.431-2.311-3.995-4.984-3.388-8.47c0.611-3.506,1.108-7.055,2.065-10.471c1.835-6.552,4.655-12.761,7.101-19.1 c1.285-3.33,3.139-6.476,3.796-10.231c-0.553,0.123-0.82,0.101-0.93,0.222c-0.276,0.306-0.541,0.649-0.706,1.023 C30.454,233.179,24.574,243.898,22.649,256c-0.818,5.145-1.924,10.643,3.231,14.831c1.298,1.054,2.272,2.964,2.732,4.901 c1.78,7.491,1.078,15.089-0.399,22.349c-1.659,8.157,2.203,19.682,8.845,24.944c3.725,2.95,7.044,6.367,9.121,10.866 c2.526,5.472,2.579,11.391,3.643,17.13c0.681,3.671,0.489,7.588,3.009,10.755c4.241,5.332,9.726,9.004,15.777,11.948 c3.702,1.801,7.303,3.687,10.277,6.71c3.702,3.763,5.791,8.547,8.736,12.78c2.544,3.656,5.332,6.924,10.569,7.17 c-0.275-0.629-0.318-1.046-0.526-1.157C92.201,396.287,89.333,391.253,86.481,386.029z M274.868,44.03 c0.203-0.906-0.638-1.492-1.3-1.505c-2.133-0.043-4.175-0.575-6.064-0.959c-0.829,0.092-1.47,0.117-2.09,0.244 c-0.615,0.126-1.205,0.503-1.812,0.516c-7.805,0.173-13.453,4.413-16.825,10.771c-2.945,5.554-7.039,8.554-12.655,10.567 c-5.047,1.809-9.007,5.087-10.406,10.669c-0.607,2.422-0.136,4.877-0.305,7.31c-0.27,3.888-1.347,7.384-4.296,10.209 c-2.512,2.407-5.628,3.763-8.558,5.447c-3.728,2.142-7.084,4.598-8.457,8.935c-0.191,0.604-1.235,1.287-0.193,1.881 c0.723,0.412,1.98,0.525,2.386-0.167c3.5-5.963,10.02-7.468,15.394-10.67c3.65-2.175,6.44-5.106,7.562-9.398 c0.967-3.702,1.775-7.457,1.486-11.261c-0.242-3.189,1.15-5.225,3.465-7.006c1.613-1.241,3.347-2.227,5.256-2.916 c5.456-1.969,9.792-5.114,12.256-10.648c1.963-4.409,5.524-7.294,9.873-9.437c4.41-2.173,9.019-1.94,13.661-1.964 C273.851,44.643,274.691,44.816,274.868,44.03z M121.149,262.123c0.266-0.789,0.471-1.273,0.591-1.776 c0.358-1.507,0.577-3.065-1.186-3.839c-1.92-0.843-2.413,0.862-2.941,2.029c-1.543,3.413-4.272,4.218-7.716,4.051 c-1.738-0.084-2.102-0.422-1.304-2.037c0.485-0.983,0.819-2.195,0.716-3.255c-0.062-0.635-1.039-1.574-1.708-1.671 c-1.198-0.175-1.865,1.014-2.204,1.963c-1.601,4.486-4.668,5.741-9.337,4.276c1.051-1.831,2.042-3.646,2.744-5.608 c0.599-1.675-0.631-2.137-1.475-2.709c-1.2-0.812-1.274,0.595-1.683,1.182c-1.143,1.646-2.585,3.201-3.257,5.031 c-1.05,2.861-2.899,2.875-5.282,2.279c0.567-3.03,1.633-5.928,1.3-9.03c-0.112-1.046-0.464-1.865-1.588-2.062 c-1.196-0.209-1.363,0.754-1.603,1.555c-0.689,2.297-1.765,4.577-1.911,6.912c-0.148,2.366-0.77,3.295-3.132,2.915 c-0.71-0.114-1.705-0.114-1.658,0.904c0.035,0.744,0.876,1.26,1.623,1.268c1.45,0.016,1.812,0.917,2.651,1.936 c2.187,2.655,5.012,4.791,7.628,7.082c0.379,0.332,1.06,0.352,1.475-0.078c0.638-0.662,0.048-1.171-0.375-1.607 c-1.184-1.223-2.487-2.339-3.582-3.634c-0.61-0.72-2.293-1.473-1.31-2.431c0.776-0.755,2.302-0.798,3.581,0.533 c1.802,1.875,4,3.413,6.182,4.864c1.124,0.747,2.532,1.623,4.191,0.31c-1.884-1.701-3.683-3.326-5.641-5.094 c4.41-0.758,8.238-0.702,11.02,3.128c0.756,1.041,1.968,1.573,3.229,1.817c0.604,0.117,1.373,0.18,1.762-0.412 c0.47-0.714-0.25-1.131-0.651-1.586c-0.868-0.986-2.119-1.665-2.6-3.002c2.752-0.483,5.285-1.552,7.688,0.954 c1.034,1.078,3.044,1.24,4.628,1.763c0.741,0.244,1.536,0.182,2.056-0.465c0.738-0.919-0.245-1.291-0.717-1.758 c-0.423-0.419-0.952-0.73-1.661-1.257c4.993-1.779,10.45-1.15,15.658-4.15C130.094,259.865,125.758,262.408,121.149,262.123z M160.999,170.028c-12.375-3.887-24.795-7.632-37.196-11.436c-1.227-0.376-2.003,0.069-2.692,1.045 c-1.576,2.229-0.36,3.598,1.296,5.061c1.7,1.501,3.839,2.872,1.487,5.751c-1.563,1.913-0.282,3.392,1.889,3.757 c1.973,0.332,4.001,0.507,6.001,0.482c9.481-0.117,18.941-1.628,28.484-0.54c1.096-0.296,2.773-0.073,3.187-1.385 C164.045,170.893,162.119,170.38,160.999,170.028z M375.872,135.681c2.421,0.3,3.693,2.145,4.369,4.128 c0.468,1.373,0.941,3.318-0.565,4.441c-1.481,1.105-3.265,1.875-5.879,0.405c1.757-0.123,3.28,0.198,2.941-1.752 c-0.284-1.632-1.338-1.922-2.755-1.999c-2.522-0.137-3.142,1.829-3.294,3.477c-0.203,2.208,0.893,4.198,3.275,4.797 c4.311,1.084,8.663-1.362,9.517-5.18c1.027-4.592-1.977-10.495-6.068-11.266c-4.611-0.869-9.069-0.416-13.321,2.084 c-6.765,3.978-11.13,10.038-14.677,16.679c-3.123,5.846-4.61,12.283-5.674,18.872c-1.088,6.739-1.27,13.461-1.126,20.229 c0.017,0.803,0.544,1.583,0.708,2.399c0.164,0.816,0.627,1.033,1.347,0.932c0.9-0.126,0.917-0.874,0.782-1.455 c-0.336-1.443-0.759-2.838-0.7-4.368c0.184-4.751,0.981-9.427,1.493-14.137c1.204-11.059,3.994-21.384,11.391-30.074 C362.451,138.236,368.14,134.724,375.872,135.681z M393.184,150.509c-2.459,0.162-4.906,0.585-6.948,1.957 c-2.271,1.526-4.139,3.609-3.419,6.618c0.529,2.211,1.872,4.145,4.347,4.584c2.327,0.413,5.39-1.925,6.484-4.299 c0.561-1.217,0.002-1.762-0.66-2.457c-0.729-0.765-1.373-1.615-2.666-1.418c-1.003,0.153-0.98,1.083-1.248,1.644 c-0.262,0.549,1.11,1.568-0.386,1.987c-0.738,0.207-1.127-0.277-1.457-0.908c-0.527-1.007-0.427-2.116,0.466-2.523 c2.433-1.108,4.77-2.77,7.766-1.154c2.776,1.497,5.004,3.069,4.771,6.685c-0.429,6.646-4.2,11.772-8.342,16.264 c-8.451,9.165-17.125,18.263-29.241,22.835c-0.587,0.221-1.246,0.661-1.067,1.386c0.202,0.821,0.978,0.629,1.57,0.473 c3.468-0.919,6.857-2.114,9.821-4.149c10.231-7.021,19.475-15.064,26.416-25.528c2.491-3.755,4.205-7.932,4.503-12.201 C404.226,155.554,398.073,150.52,393.184,150.509z M210.783,92.001c4.708-2.464,7.234-6.236,8.543-11.1 c0.628-2.333,0.884-4.826,0.991-7.149c0.336-7.274,4.281-11.804,10.641-13.747c7.081-2.163,11.829-6.267,15.451-12.594 c3.661-6.395,9.224-10.613,16.994-11.135c1.068-0.072,3.058,0.577,3.002-0.694c-0.07-1.608-2.085-0.44-3.094-0.899 c-3.693,0.205-7.204,0.773-10.295,2.816c-4.025,2.661-7.735,5.881-9.975,10.068c-3.239,6.054-8.561,8.662-14.535,10.738 c-4.733,1.645-8.21,4.672-9.668,9.637c-0.86,2.929-1.321,5.917-1.472,8.985c-0.273,5.56-2.376,10.179-7.355,13.171 c-5.082,3.054-9.533,6.596-10.339,13.087c-0.102,0.825-0.363,1.472,0.514,1.809c1.466,0.563,1.108-0.683,1.337-1.411 C203.11,98.529,206.15,94.426,210.783,92.001z M110.691,294.989c-1.184,0.442-2.822,0.644-4.537,0.705 c-6.149,0.221-11.801,2.049-16.749,5.792c-2.252,1.703-2.202,3.408,0.156,4.941c1.789,1.163,3.427,2.475,4.96,3.961 c2.665,2.585,3.578,2.514,6.331-0.119c3.669-3.509,6.145-8.108,10.301-11.191c0.692-0.513,1.072-1.564,1.384-2.441 C112.959,295.448,112.443,294.803,110.691,294.989z M321.061,275.824c-3.872-1.757-8.038-1.616-12.146-1.197 c-0.923,0.094-2.104,0.889-1.882,2.197c0.221,1.302,1.324,1.439,2.481,1.408c1.703-0.046,3.41,0.06,5.113,0.008 c1.58-0.048,2.341,0.48,2.958,2.128c1.337,3.57,0.459,6.781-0.563,10.171c-1.257,4.17-3.891,7.685-5.227,11.812 c-0.605,1.867-0.114,3.19,1.375,3.981c1.862,0.989,3.971,1.48,6.105,1.424c1.757-0.047,2.654-1.253,2.774-2.888 c0.137-1.857-1.175-2.279-2.71-2.333c-0.71-0.025-1.42-0.079-2.404-0.136c2.702-5.738,5.25-11.246,6.365-17.318 C323.981,281.363,323.29,276.835,321.061,275.824z M300.378,292.832c-2.045,0.357-4.057,0.951-6.046,1.56 c-1.812,0.555-3.841,2.082-3.409,3.574c0.518,1.794,3.051,0.935,4.589,0.638c5.665-1.096,5.699-1.174,3.939,4.19 c-1.657,5.051-3.542,10.029-5.14,15.098c-1.473,4.673,0.41,7.906,4.456,8.148c1.963,0.118,4.031-0.276,4.145-2.398 c0.113-2.114-1.905-2.391-3.729-2.224c-0.293,0.027-0.602-0.12-1.083-0.226c0.304-0.724,0.532-1.389,0.852-2.006 c3.344-6.466,5.444-13.342,6.803-20.469C306.37,295.483,303.546,292.279,300.378,292.832z M325.329,251.094 c-3.634-0.233-5.482-2.601-7.345-5.289c-1.692-2.442-5.918-3.634-7.729-2.626c-0.589,0.328-1.125,0.581-1.102,1.346 c0.017,0.605,0.325,1.076,0.931,1.056c3.764-0.127,5.24,2.635,6.713,5.33c1.484,2.714,3.894,3.639,7.413,3.899 c0.925,0.201,2.266-0.484,2.81-1.762C327.401,252.155,326.093,251.143,325.329,251.094z M348.799,219.706 c-1.026-1.304-2.449-1.826-4.045-2.208c-2.315-0.554-4.472-1.189-5.821-3.729c-0.82-1.544-2.255-3.482-4.721-3.072 c-1.225-0.063-2.657-0.103-2.824,1.366c-0.181,1.595,1.394,0.701,2.133,1.029c1.37,0.61,2.072,1.674,2.469,3.073 c0.763,2.693,2.539,3.983,5.339,4.646c2.144,0.508,4.431,0.134,6.467,1.208c0.529,0.279,1.261,0.066,1.698-0.53 C350.189,220.541,349.197,220.212,348.799,219.706z M335.497,235.208c-3.081,0.009-3.754-2.272-4.84-4.25 c-2.698-4.914-6.177-6.185-10.353-3.456c6.122,2.041,5.374,1.171,8.253,7.682c1.257,2.842,3.576,3.925,6.191,4.06 c1.211,0.063,3.654,0.054,3.842-1.931C338.747,235.652,336.574,235.204,335.497,235.208z M299.543,261.719 c2.193,1.313,3.818,3.192,5.162,5.424c1.204,2,3.229,2.973,5.289,2.804c2.108-0.035,4.514-0.323,4.647-1.839 c0.163-1.862-2.14-2.648-3.953-2.667c-1.725-0.018-2.624-0.755-3.543-2.113c-1.622-2.399-3.726-4.261-6.936-4.091 c-0.611,0.032-1.358-0.112-1.539,0.734C298.504,260.745,298.73,261.232,299.543,261.719z M285.379,302.779 c-2.91-0.861-4.492-3.14-6.506-5.028c-0.779-0.731-2.06-0.991-3.159-1.301c-0.964-0.271-1.637,0.361-1.988,1.194 c-0.293,0.696-0.385,1.892,0.216,2.045c2.68,0.682,3.104,3.18,4.411,4.971c0.938,1.286,2.206,1.968,3.776,1.651 c1.271,0.097,2.363-0.003,3.359-0.833C286.731,304.441,286.757,303.187,285.379,302.779z M255.695,59.017 c-2.882-0.089-4.416,1.249-4.609,3.622c-0.18,2.218,3.147,5.464,5.186,5.452c2.849-0.017,3.454-2.022,3.505-4.253 C259.843,60.847,258.022,58.982,255.695,59.017z M61.985,228.836c0.133-2.846-1.281-3.798-3.848-3.667 c-2.72-0.241-3.904,1.352-4.067,3.733c-0.165,2.423,2.54,5.688,4.434,5.238C61.098,233.524,61.865,231.377,61.985,228.836z M297.656,288.772c0.702-0.084,1.232-0.485,1.481-1.063c0.3-0.698-0.215-1.36-0.75-1.586c-2.468-1.041-3.791-3.345-5.668-5.024 c-1.512-1.352-3.272-1.783-5.107-2.118c-1.211-0.168-2.246,0.171-2.599,1.344c-0.3,0.995,0.429,1.674,1.388,1.673 c3.265-0.004,4.885,1.976,6.104,4.661C293.521,288.894,295.54,289.025,297.656,288.772z M72.617,330.001 c-1.475-0.379-3.242-0.736-4.417,0.815c-1.17,1.545-1.033,3.086,0.27,4.568c0.477,0.543,0.692,1.311,1.15,1.876 c1.921,2.371,3.25,2.167,4.737-0.471c0.529-0.939,0.351-1.834,0.44-2.743C75.094,332.133,74.567,330.502,72.617,330.001z M56.309,285.057c-3.432,0.005-4.344,0.845-4.302,3.764c0.033,2.319,1.967,4.603,3.884,4.585c1.88-0.017,3.735-2.816,3.71-5.504 C59.578,285.501,58.267,284.769,56.309,285.057z M100.557,369.713c0.381-2.702-0.785-3.585-3.419-3.611 c-2.375-0.023-3.706,1.004-4.042,3.076c-0.304,1.881,2.935,5.551,4.625,5.33C100.553,374.137,100.33,371.713,100.557,369.713z M232.285,90.188c-3.101-0.724-2.568,1.856-2.674,3.714c-0.114,2.002,2.205,3.802,4.577,3.872c2.556,0.075,2.97-1.562,2.953-3.541 C237.119,91.543,235.583,90.203,232.285,90.188z M75.466,134.867c2.534-0.45,3.239-2.579,3.619-4.654 c0.263-1.434-3.115-3.693-5.463-3.587c-1.58,0.325-1.896,1.809-1.879,3.471C71.767,132.465,73.825,135.158,75.466,134.867z M57.005,74.287c2.285-0.647,3.272-2.5,3.389-4.729c-0.094-2.363-1.06-3.679-3.502-3.655c-2.223,0.022-3.652,1.079-3.886,3.237 C52.795,71.078,55.625,74.677,57.005,74.287z M88.463,181.279c0.373,1.994,0.682,4.859,3.075,4.842 c2.012-0.014,3.508-2.37,3.665-4.562c0.174-2.423-2.119-2.729-3.871-3.439C90.042,178.86,88.068,179.167,88.463,181.279z M263.989,315.531c-0.908,0.572-1.351,1.524-0.179,1.794c2.31,0.533,3.544,2.065,4.75,3.829c0.859,1.257,1.981,0.629,3.086,0.314 c0.727-0.207,1.14-0.499,1.021-1.82c-1.522-1.243-3.324-2.773-5.19-4.218C266.337,314.548,265.15,314.801,263.989,315.531z" fill="#DF0D14"/></g><g id="change5_1"><path d="M171.684,287.105c-0.702,1.225-1.743,1.944-2.702,2.761c-1.079,0.919-2.119,2.032-1.47,3.551 c0.605,1.418,2.064,0.604,3.139,0.773c3.804,0.595,7.519-0.992,11.323-0.676c0.116,1.225-0.58,1.909-1.049,2.72 c-1.371,2.37-0.871,3.191,1.793,3.271c3.878,0.116,7.441-1.152,11.012-2.401c0.704-0.246,1.599-0.609,1.516-1.403 c-0.12-1.156-1.275-0.798-2.048-0.937c-2.203-0.394-4.277,1.325-6.887,0.6c0.632-0.663,1.014-1.014,1.338-1.413 c0.637-0.785,2.011-1.323,1.496-2.559c-0.514-1.234-1.65-1.893-3.116-1.744c-1.882,0.191-3.744-0.099-5.673,0.456 c-2.309,0.665-4.805,0.682-8.046,1.082c2.053-1.487,3.396-2.451,4.73-3.428c3.268-2.394,3.157-4.243-0.413-6.416 c-1.654-1.006-3.649-1.439-5.072-2.85c0.82-1.201,1.959-0.965,2.995-0.96c3.089,0.017,5.992-0.941,8.964-1.572 c1.304-0.277,2.282-0.962,2.547-2.072c0.279-1.168-0.942-1.774-1.789-2.378c-0.91-0.649-1.873-1.222-3.228-2.096 c2.886-0.477,5.445,0.236,7.542-1.381c1.466-1.13,1.795-1.844-0.311-2.777c-3.312-1.468-6.441-0.205-9.655,0.109 c-1.595,0.156-2.973,0.636-3.594,2.168c-0.63,1.555,0.441,2.558,1.461,3.562c0.471,0.464,1.559,0.846,1.044,1.679 c-0.315,0.51-1.241,0.822-1.927,0.891c-2.819,0.285-5.596,0.707-8.341,1.444c-1.124,0.301-2.06,0.557-2.205,1.864 c-0.14,1.265,0.202,2.157,1.497,2.814c2.295,1.165,4.464,2.58,6.685,3.89c-6.108-0.554-12.093,2.422-18.121-0.012 c-1.557-0.629-3.614-0.325-5.382-0.058c-3.615,0.547-6.046,3.602-5.46,6.516c0.576,2.866,3.697,4.695,7.266,4.024 c3.473-0.654,6.867-2.07,9.193-4.589C163.944,286.084,167.725,287.125,171.684,287.105z M150.165,291.118 c-1.079-0.006-2.174,0.049-2.455-1.379c-0.324-1.649,1.029-1.99,2.035-2.298c2.213-0.678,4.304,0.571,7.017,0.72 C154.525,289.999,152.598,291.131,150.165,291.118z M249.479,276.058c-0.764-0.339-1.55-0.69-2.362-0.853 c-11.354-2.276-22.748-4.216-36.767-3.745c-2.533,0.267-7.587-1.087-12.312,1.282c-2.135,1.07-4.46,2.172-4.102,4.978 c0.332,2.605,2.616,3.813,4.912,4.292c7.967,1.663,16.059,1.271,23.921-0.197c8.649-1.615,17.246-3.34,26.048-3.76 c0.617-0.029,1.007,0.014,1.141-0.627C250.069,276.889,250.062,276.317,249.479,276.058z M204.507,279.005 c-1.087-0.025-2.047-0.277-3.031-0.683c-0.772-0.318-2.227,0.243-2.059-1.2c0.121-1.034,1.297-1.112,2.29-1.259 c9.128-1.345,18.234-0.707,27.376,0.223C220.966,277.861,212.821,279.196,204.507,279.005z M203.427,152.167 c-2.186,0.942-3.746,2.412-3.533,5.162c0.566,5.207,4.404,8.127,8.382,10.344c5.178,2.886,10.422,5.954,16.536,6.647 c0.73,0.083,1.078,0.616,1.536,1.039c3.739,3.461,7.48,6.918,11.211,10.387c0.836,0.778,1.717,2.185,2.872,1.19 c1.15-0.99-0.29-2.036-0.86-2.833c-3.876-5.427-8.516-10.186-13.241-14.867c-5.061-5.014-9.989-10.166-15.173-15.048 C209.1,152.249,206.485,150.85,203.427,152.167z M213.641,161.524c1.636,2.595,4.543,4.097,6.404,7.614 c-6.739-2.403-13.166-3.802-17.445-9.288c-0.846-1.084-0.839-2.673,0.148-3.822c1.036-1.207,2.279-1.65,3.902-0.691 C209.396,156.96,211.916,158.788,213.641,161.524z M171.181,139.97c2.372,1.808,5.214,2.658,8.062,2.319 c3.134-0.373,4.611,1.71,6.769,3.003c-0.753,1.031-1.561,0.802-2.249,0.868c-1.078,0.102-2.329,0.073-2.631,1.323 c-0.276,1.139,0.97,1.539,1.68,2.082c2.048,1.565,4.169,3.033,6.531,4.733c-1.229,0.524-2.123,0.815-2.918,1.276 c-0.504,0.292-0.974,0.679-0.448,1.515c1.231,1.957,6.815,4.408,9.411,3.94c-0.83-1.935-3.17-2.159-4.366-3.612 c0.869-1.037,2.668,0.261,2.892-1.578c0.177-1.448-0.882-2.111-1.823-2.753c-2.031-1.386-4.131-2.671-6.449-4.155 c6.553-1.05,6.553-1.05,4.464-8.264c2.172,1.302,3.848,2.336,5.553,3.319c1.353,0.781,2.881,2.175,4.332,1.187 c1.563-1.064-0.309-2.665-0.205-4.061c0.009-0.122,0.161-0.233,0.329-0.46c1.135,1.02,2.271,1.976,3.742,2.405 c0.654,0.19,1.345,0.315,1.781-0.202c0.531-0.629-0.15-1.188-0.445-1.69c-1.488-2.537-4.081-3.621-6.6-4.664 c-1.322-0.547-2.178,0.34-2.376,1.77c-0.108,0.779,0.393,1.685-0.551,2.461c-2.001-1.085-4.019-2.194-6.051-3.274 c-0.899-0.478-1.777-0.616-2.64,0.178c-0.859,0.79-0.159,1.466-0.063,2.259c0.196,1.617,1.604,2.889,1.397,5.412 c-3.157-3.73-7.416-5.102-9.756-8.884c-0.79-1.277-2.216-2.266-3.783-2.812c-2.065-0.72-3.936-0.395-4.948,1.569 C168.891,136.982,169.571,138.742,171.181,139.97z M172,136.316c0.532-0.759,1.308-0.625,1.947-0.231 c1.235,0.761,2.362,1.66,2.598,3.319c-1.645,0.41-2.905-0.244-4.069-1.196C171.858,137.703,171.459,137.087,172,136.316z M274.68,90.233c3.578,3.427,4.58,12.412,1.97,16.627c-1.728,2.79-4.226,3.056-6.799,0.39c-3.895-4.035-6.387-8.875-6.912-14.512 c-0.225-2.416-1.765-4.885-0.017-7.334c0.477-0.668,0.777-1.807,1.824-1.275c1.029,0.523-0.216,1.287-0.142,1.824 c0.34,2.437,0.769,4.879,1.407,7.254c1.027,3.82,2.858,7.226,5.66,10.093c1.098,1.124,2.174,1.334,2.356-0.375 c0.358-3.373,1.144-6.928-1.706-10.276c-0.788,1.677-0.062,4.162-1.905,3.982c-1.927-0.188-2.216-2.442-2.285-4.334 c-0.065-1.774,0.828-2.834,2.296-3.454C272.177,88.105,273.555,89.155,274.68,90.233z M251.931,126.737 c-2.758-1.269-4.944-3.13-6.441-5.848c-1.919-3.483-4.212-6.784-4.723-10.873c-0.107-0.86-0.116-2.03,0.699-2.193 c1.372-0.274,0.671,1.104,0.957,1.738c2.12,4.706,4.36,9.339,8.66,12.545c0.7,0.522,1.604,1.153,2.309,0.767 c0.947-0.519,0.564-1.798,0.37-2.592c-0.754-3.091-1.706-6.141-4.383-8.258c-0.692,0.684-0.246,1.026-0.175,1.404 c0.19,1.016,1.756,2.234,0.246,2.975c-1.138,0.559-2.048-0.977-2.661-1.857c-1.099-1.578-1.884-3.533-0.238-5.134 c1.595-1.551,3.398-1.108,5.108,0.245c3.72,2.945,6.336,10.403,5.133,14.933C256.128,127.086,254.388,127.868,251.931,126.737z M172.21,325.359c-3.271-1.4-6.895,0.597-7.141,3.934c-0.34,4.612,6.208,11.582,10.867,11.72c2.793,0.083,3.333-1.765,3.541-3.833 C179.861,333.38,175.803,326.897,172.21,325.359z M173.507,337.029c-2.706-1.341-4.748-3.461-6.18-6.094 c-0.741-1.363-0.107-1.925,1.978-1.934c2.625-0.011,7.256,4.255,7.049,6.753C176.215,337.417,174.814,337.677,173.507,337.029z M187.637,320.464c-1.782-1.237-4.498-1.398-5.9,0.071c-1.126,1.179-2.79,3.306-1.387,5.495c1.966,3.066,3.561,6.436,6.967,8.364 c1.495,0.847,2.953,2.13,4.639,1.242c1.745-0.919,1.978-2.85,1.954-4.75C193.503,326.412,191.22,322.951,187.637,320.464z M189.928,331.862c-3.773-1.555-5.794-4.706-7.979-7.699c1.371-1.467,2.908-1.109,4.125-0.123 C188.44,325.957,190.75,328.038,189.928,331.862z M181.826,224.024c-1.196,2.202-2.598,4.309-3.602,6.592 c-0.94,2.138-0.178,4.083,1.457,5.738c1.042,1.055,2.222,1.371,3.407,0.587c3.734-2.474,5.365-6.26,6.263-10.231 c-0.107-2.368-1.375-3.318-3.294-3.917C184.266,222.233,182.838,222.162,181.826,224.024z M184.516,229.416 c-0.819,1.15-1.214,2.748-2.782,3.284c-0.94-0.145-0.818-0.921-0.718-1.462c0.344-1.863,1.267-3.503,2.159-5.155 c0.878-1.627,1.94-0.039,2.098,0.2C186.037,227.439,185.119,228.571,184.516,229.416z M195.074,227.447 c-1.586,2.333-2.749,4.955-3.005,7.819c-0.149,1.669,0.61,3.134,2.024,4.055c1.301,0.848,2.597,0.424,3.842-0.376 c2.884-1.855,4.372-4.429,4.277-7.885c-0.053-2.136-0.011-4.2-2.579-5.206C197.519,225.026,196.069,225.983,195.074,227.447z M195.774,235.303c-1.064-2.926,0.923-4.609,1.753-6.714C199.93,230.916,199.539,232.446,195.774,235.303z M201.83,316.325 c-1.057-0.8-2.432-1.368-3.88-0.716c-1.761,0.793-0.209,2.21-0.597,3.265c-0.377-1.147-1.197-1.372-2.244-0.999 c-0.505,0.18-0.487,0.627-0.309,1.05c1.466,3.468,2.666,7.104,6.112,9.277c2.971,1.874,5.466,0.725,5.778-2.808 C207.046,321.362,204.799,318.572,201.83,316.325z M202.816,324.837c-0.685,0.369-1.368-0.239-1.627-0.579 c-1.312-1.728-2.905-3.269-3.791-5.299c3.022-0.01,5.538,2.096,5.828,4.806C203.28,324.277,203.162,324.651,202.816,324.837z M217.391,317.143c-0.296-2.445-1.256-4.642-3.698-5.398c-2.041-0.632-4.599-0.478-5.962,1.163c-1.462,1.76-0.06,3.96,0.721,5.873 c0.238,0.582,0.475,1.197,0.861,1.678c1.336,1.667,2.922,3.692,5.132,3.063c2.283-0.65,3.135-2.964,2.951-5.421 C217.397,317.782,217.43,317.458,217.391,317.143z M213.519,318.496c-0.059,0.231-0.376,0.561-0.576,0.562 c-0.832,0.004-1.225-0.619-1.607-1.264c-0.458-0.775-0.978-1.514-1.508-2.326c1.298-0.437,2.114,0.194,2.95,0.819 C213.548,316.862,213.74,317.626,213.519,318.496z M208.508,230.077c-1.436,2.309-2.602,4.807-3.112,7.498 c-0.479,2.526,1.659,5.035,4.355,4.983c0.199-0.042,0.75-0.062,1.215-0.273c3.047-1.385,5.417-8.539,4.104-11.041 C213.835,228.889,209.793,228.012,208.508,230.077z M212.136,233.465c0.036,2.19-0.916,3.634-2.31,4.841 c-0.406,0.351-0.791,0.105-1.045-0.25c-1.266-1.77,0.595-3.062,0.788-4.621c0.091-0.739,0.263-2.128,1.597-1.818 C212.103,231.835,212.206,232.824,212.136,233.465z M221.333,233.134c-2.199,1.24-3.81,6.987-2.82,9.407 c1.361,3.328,3.826,3.884,6.305,1.34c1.774-1.82,2.528-4.077,2.369-6.796c0.209-1.493,0.049-3.146-1.581-3.97 C224.28,232.444,222.648,232.393,221.333,233.134z M222.154,240.805c-0.603,0.262-1.091-0.769-0.889-1.338 c0.501-1.412,0.124-3.379,1.71-4.088c0.761-0.341,1.298,0.837,1.26,2.131C224.006,238.655,223.622,240.167,222.154,240.805z M239.873,241.751c-0.146,0.711-0.364,1.407-0.553,2.109c-0.686,2.563-3.498,5.364-4.833,4.592c-2.329-1.346-3.1-3.637-2.693-6.267 c0.425-2.745,2.674-5.68,4.201-5.594C238.099,236.709,240.308,239.633,239.873,241.751z M250.472,245.367 c-0.223,1.819-0.368,4.423-2.884,4.64c-1.993,0.171-2.668-1.679-2.911-3.652c0.635-1.405,0.439-3.707,2.872-3.685 C249.067,242.684,250.667,243.769,250.472,245.367z M226.431,312.28c-0.089,1.212-0.449,2.334-1.991,2.356 c-1.977,0.028-4.059-2.408-3.986-4.501c0.057-1.602,0.982-2.432,2.155-3.018C223.961,307.199,226.544,310.734,226.431,312.28z M234.031,306.283c0.245,1.861-1.022,2.314-2.513,2.221c-2.523,0.109-2.726-1.487-2.719-3.34c0.006-1.589,0.429-2.705,2.285-2.62 C233.491,302.655,233.802,304.541,234.031,306.283z M300.584,271.793c-1.294,2.169-1.672,4.727-3.977,6.037 c-0.469,0.267-1.046,0.572-1.424,0.139c-0.286-0.329-0.442-1.029-0.295-1.433c0.754-2.075,1.714-4.04,3.579-5.403 c0.457-0.334,0.874-0.628,1.381-0.211C300.139,271.16,300.344,271.502,300.584,271.793z M308.995,259.218 c-0.599-0.064-1.53,0.01-1.249-0.9c0.609-1.978,1.462-3.9,3.058-5.306c0.878-0.774,1.581-0.174,1.964,0.689 C313.561,255.487,310.925,259.304,308.995,259.218z M241.657,299.634c0.136,1.751-0.496,3.267-1.893,3.325 c-1.395,0.058-2.696-0.982-2.618-2.871c0.069-1.686,1.044-2.095,2.493-2.098C240.938,297.987,242.09,298.052,241.657,299.634z M306.132,274.576c0.063,1.149-4.493,5.878-5.336,5.762c-0.922-0.127-0.993-1.002-0.689-1.43c1.212-1.706,2.472-3.411,3.949-4.879 C304.673,273.416,305.886,273.373,306.132,274.576z M323.898,238.038c-0.396,1.857-0.983,3.709-3.376,3.851 c-0.739,0.044-1.701-0.02-1.283-1.136c0.722-1.929,1.294-4.03,3.609-4.925C323.799,236.25,324.082,237.176,323.898,238.038z M292.034,275.152c-0.768-0.019-1.119-0.246-0.914-1.157c0.488-2.169,1.839-3.685,3.478-5.038c0.803-0.663,1.197,0.006,1.417,0.513 C296.663,270.969,293.649,275.203,292.034,275.152z M328.531,241.198c-0.596,1.692-0.769,3.778-2.688,4.392 c-1.049,0.058-1.477-0.236-1.542-1.049c-0.101-1.247,2.126-4.969,3.022-4.908C328.264,239.698,328.709,240.695,328.531,241.198z M285.617,286.747c-1.224,2.211-2.189,4.584-4.015,6.318c-0.745,0.708-1.498-0.097-1.264-0.973c0.643-2.397,2.224-4.257,3.96-5.941 C284.785,285.681,285.504,285.851,285.617,286.747z M288.368,295.599c1.401-1.438,2.808-2.869,4.565-4.663 c0.191,2.421-2.524,6.681-4.048,6.931c-0.255,0.042-0.703-0.05-0.79-0.22C287.729,296.935,287.774,296.209,288.368,295.599z M309.041,251.209c0.011,1.508-2.526,4.935-3.66,4.856c-0.945-0.065-0.931-0.796-0.8-1.395c0.431-1.974,1.114-3.81,2.962-4.571 C308.587,250.105,309.034,250.354,309.041,251.209z M341.536,226.147c-0.223,1.756-1.238,3.096-3.238,3.492 c-0.763,0.151-1.252-0.443-1.089-1.172c0.435-1.941,1.575-3.614,3.305-4.383C341.506,223.642,341.428,225.116,341.536,226.147z M335.703,223.023c-0.04,1.183-2.129,3.544-3.257,3.527c-0.846-0.067-1.113-0.776-0.929-1.532c0.4-1.637,0.934-3.29,2.938-3.611 C335.712,221.206,335.732,222.143,335.703,223.023z M320.506,233.482c-1.214,1.31-0.721,4.138-3.499,4.504 c-0.842,0.111-1.038-0.53-1.029-1.245c0.018-1.312,2.899-4.805,3.875-4.69C320.622,232.142,320.52,232.713,320.506,233.482z M289.133,289.789c0.359,1.263-2.672,5.196-3.941,5.154c-0.598,0.011-1.022-0.202-1.064-0.864c-0.044-0.685,3.239-5.181,3.791-5.144 C288.466,288.972,288.971,289.219,289.133,289.789z M258.322,248.409c-0.128,0.8-0.438,2.335-1.864,2.194 c-1.149-0.113-1.979-1.333-1.932-2.832c0.049-1.561,1.144-1.99,2.264-2.034C258.157,245.685,258.391,246.812,258.322,248.409z M274.16,305.082c-1.046,1.845-1.934,3.838-4.065,5.394c-0.409-2.913,1.281-4.521,2.224-6.387c0.226-0.448,0.738-0.805,1.306-0.349 C274.045,304.077,274.467,304.54,274.16,305.082z M316.816,258.003c0.057,1.785-0.909,2.942-2.371,3.542 c-1.118,0.051-1.811-0.478-1.479-1.302c0.606-1.503,0.942-3.43,2.844-3.868C316.844,256.136,316.795,257.354,316.816,258.003z M265.206,322.91c-1.06,1.045-0.743,3.359-2.857,3.807c-0.8,0.169-1.113-0.806-0.855-1.319c0.758-1.51,0.769-3.587,2.575-4.318 C264.68,320.833,265.202,321.835,265.206,322.91z M265.91,250.652c-0.183,1.153-0.682,2.419-1.999,2.52 c-1.292,0.099-1.662-1.001-1.761-2.174c-0.14-1.67,0.952-1.59,2.482-1.518C265.02,249.512,266.12,249.325,265.91,250.652z M331.827,218.583c-0.862,1.577-1.101,3.698-2.958,4.184c-0.96,0.029-1.582-0.205-1.379-0.825c0.606-1.841,1.739-3.361,3.503-4.238 C331.623,217.391,332.074,218.129,331.827,218.583z M277.15,306.928c0.11,0.846,0.177,1.153,0.185,1.462 c0.046,1.989-1.539,2.802-2.823,3.806c-0.112,0.088-0.703-0.144-0.76-0.325c-0.578-1.832,1.091-2.513,1.937-3.61 C275.99,307.872,276.421,307.584,277.15,306.928z" fill="#45DBD9"/></g></svg>